<svg viewBox="0 0 202 211" fill="none" xmlns="http://www.w3.org/2000/svg">
<path fill-rule="evenodd" clip-rule="evenodd" d="M198.111 180.457C195.258 189.252 190.351 195.518 183.388 199.254C176.091 203.085 167.061 205 156.298 205C146.265 205 135.867 202.172 125.104 196.517C117.442 200.531 108.959 203.449 99.6556 205.274C90.5344 207.28 80.7747 208.284 70.3765 208.284C49.3977 208.284 32.8883 204.088 20.8483 195.696C8.80833 187.305 2.78833 173.897 2.78833 155.472C2.78833 147.81 3.97409 141.152 6.3456 135.496C8.71712 129.841 12.0008 124.733 16.1965 120.173C20.3923 115.612 25.5001 111.508 31.5201 107.859C37.7226 104.028 44.4723 100.289 51.7692 96.6401C50.3098 89.7079 49.3065 82.867 48.7592 76.1173C48.3944 69.3676 48.7592 62.8004 49.8538 56.4155C51.1308 48.3888 53.4111 41.0919 56.6947 34.5246C60.1608 27.7749 64.4477 22.0285 69.5556 17.2855C74.6635 12.5425 80.5011 8.894 87.0683 6.34007C93.818 3.78613 101.206 2.50916 109.233 2.50916C113.429 2.50916 117.351 3.05643 120.999 4.15097C124.83 5.24551 128.205 6.88733 131.124 9.07643C134.043 11.2655 136.323 14.1843 137.965 17.8328C139.789 21.2988 140.701 25.4946 140.701 30.4201C140.701 36.9873 138.603 43.0073 134.407 48.4801C130.212 53.9528 124.921 59.0607 118.537 63.8037C112.334 68.5467 105.402 72.9249 97.7402 76.9382C90.2608 80.7691 83.2374 84.4176 76.6702 87.8837C79.2241 97.5522 82.6902 107.038 87.0683 116.342C91.4465 125.646 96.4632 134.402 102.118 142.611C107.773 150.638 113.793 158.026 120.178 164.776C126.746 171.525 133.313 177.272 139.88 182.015C144.988 177.272 149.275 171.89 152.741 165.87C156.207 159.85 159.035 153.556 161.224 146.989C163.413 140.422 164.963 133.763 165.876 127.014C166.97 120.082 167.517 113.423 167.517 107.038C167.517 105.032 167.335 103.481 166.97 102.386C166.605 101.109 165.693 100.197 164.234 99.6501C162.774 98.9204 160.677 98.4643 157.94 98.2819C155.386 98.0994 151.738 98.0082 146.995 98.0082V94.7246H193.786V98.0082C188.679 98.0082 184.574 98.0994 181.473 98.2819C178.372 98.4643 176.091 98.9204 174.632 99.6501C173.173 100.197 172.169 101.109 171.622 102.386C171.257 103.481 171.075 105.032 171.075 107.038C171.075 124.733 168.612 139.966 163.687 152.736C159.038 164.615 152.602 174.545 144.378 182.525C143.888 183.001 143.392 183.469 142.89 183.93C143.459 184.322 144.027 184.705 144.594 185.079C149.298 188.177 153.929 190.622 158.487 192.413C163.595 194.237 168.247 195.149 172.443 195.149C177.916 195.149 182.75 193.963 186.946 191.592C191.324 189.22 194.243 184.842 195.702 178.457H198.712C198.523 179.138 198.323 179.805 198.111 180.457ZM123.736 12.6337C127.202 17.3767 128.935 23.3055 128.935 30.4201C128.935 36.2576 127.202 41.8216 123.736 47.1119C120.452 52.4022 116.165 57.3276 110.875 61.8882C105.767 66.4489 100.112 70.6446 93.9092 74.4755C88.3556 77.9057 82.9482 80.9703 77.687 83.6692C77.0724 83.9845 76.4598 84.2948 75.8492 84.6001C75.6929 83.9289 75.5427 83.2585 75.3984 82.5887C72.6805 69.9691 72.1011 57.5962 73.6601 45.4701C75.302 33.0652 78.8592 23.3055 84.332 16.191C89.9871 9.07642 98.2874 5.51915 109.233 5.51915C115.618 5.51915 120.452 7.89067 123.736 12.6337ZM85.9076 17.4229C80.7231 24.1688 77.2555 33.5511 75.6433 45.729C74.1368 57.4497 74.6656 69.4196 77.243 81.6484C82.3051 79.0348 87.5102 76.0771 92.8583 72.7739C98.9674 69.0006 104.528 64.8741 109.543 60.3964L109.556 60.3848L109.569 60.3734C114.724 55.9294 118.872 51.1555 122.036 46.0572L122.049 46.0363L122.063 46.0158C125.334 41.0229 126.935 35.8356 126.935 30.4201C126.935 23.6382 125.287 18.147 122.121 13.8137L122.106 13.7931L122.091 13.7721C119.226 9.63274 115.043 7.51915 109.233 7.51915C98.7654 7.51915 91.1046 10.8927 85.9076 17.4229ZM159.189 190.54C164.129 192.301 168.54 193.149 172.443 193.149C177.618 193.149 182.105 192.031 185.961 189.851L185.977 189.842L185.993 189.833C189.718 187.816 192.378 184.023 193.752 178.012L194.108 176.457H201.343L200.639 178.993C197.789 189.254 192.391 196.693 184.334 201.016L184.326 201.02L184.318 201.024C176.66 205.045 167.289 207 156.298 207C146.173 207 135.767 204.225 125.102 198.769C117.506 202.629 109.156 205.447 100.063 207.232C90.7921 209.27 80.8947 210.284 70.3765 210.284C49.1574 210.284 32.1962 206.043 19.7047 197.337C6.99076 188.476 0.78833 174.363 0.78833 155.472C0.78833 147.609 2.00483 140.676 4.50121 134.723C6.96329 128.852 10.3737 123.548 14.7247 118.819C19.0622 114.104 24.3196 109.885 30.4761 106.153C36.341 102.531 42.6832 98.9944 49.5012 95.5424C48.1926 89.0466 47.2804 82.6253 46.7658 76.279L46.7636 76.2522L46.7622 76.2253C46.3898 69.3372 46.7612 62.6241 47.8805 56.0896C49.1865 47.8871 51.5232 40.3954 54.9058 33.6302L54.9107 33.6206L54.9156 33.611C58.4785 26.6727 62.9019 20.7347 68.1947 15.8199C73.4896 10.9032 79.5435 7.12046 86.3434 4.47606L86.352 4.47273L86.3605 4.46949C93.3604 1.8209 100.991 0.509155 109.233 0.509155C113.599 0.509155 117.712 1.07825 121.561 2.23155C125.6 3.387 129.196 5.13037 132.324 7.47643C135.523 9.87607 137.998 13.0554 139.763 16.9561C141.753 20.7625 142.701 25.2766 142.701 30.4201C142.701 37.4503 140.444 43.8938 135.995 49.6969C131.673 55.3342 126.247 60.5661 119.74 65.4009C113.441 70.2166 106.415 74.6518 98.6682 78.7099L98.66 78.7142L98.6519 78.7183C91.7131 82.2724 85.1683 85.6687 79.0173 88.9073C81.4957 97.9256 84.782 106.786 88.878 115.49C93.2096 124.695 98.1704 133.354 103.759 141.468C109.358 149.413 115.312 156.72 121.622 163.391C127.669 169.605 133.7 174.943 139.714 179.413C144.152 175.088 147.916 170.243 151.008 164.872C154.407 158.968 157.18 152.797 159.326 146.357C161.477 139.906 162.999 133.37 163.894 126.746L163.897 126.724L163.9 126.702C164.98 119.863 165.517 113.309 165.517 107.038C165.517 105.112 165.337 103.812 165.073 103.019L165.059 102.978L165.047 102.936C164.888 102.379 164.514 101.891 163.532 101.523L163.433 101.486L163.339 101.439C162.226 100.882 160.435 100.453 157.807 100.277L157.798 100.277C155.315 100.099 151.723 100.008 146.995 100.008H144.995V92.7246H195.786V100.008H193.786C188.696 100.008 184.636 100.099 181.59 100.278C178.559 100.457 176.612 100.896 175.526 101.439L175.432 101.486L175.334 101.523C174.352 101.891 173.804 102.424 173.493 103.101C173.243 103.901 173.075 105.177 173.075 107.038C173.075 124.911 170.588 140.4 165.553 153.455L165.549 153.464C160.865 165.434 154.381 175.513 146.079 183.66C150.539 186.567 154.91 188.856 159.189 190.54ZM79.6802 155.746C85.7001 163.772 92.1762 171.16 99.1083 177.91C105.55 183.856 112.216 188.905 119.107 193.057C119.826 193.491 120.548 193.914 121.273 194.328C120.502 194.654 119.72 194.971 118.925 195.277C114.829 196.859 110.412 198.184 105.676 199.254C100.02 200.348 93.9092 200.896 87.342 200.896C78.0383 200.896 69.9205 199.345 62.9883 196.244C56.2386 193.142 50.4923 188.947 45.7492 183.656C41.1886 178.366 37.7226 172.164 35.3511 165.049C33.162 157.752 32.0674 149.908 32.0674 141.516C32.0674 132.213 33.8005 124.551 37.2665 118.531C40.6075 112.851 45.3251 107.631 51.4194 102.869C51.9804 102.431 52.5531 101.996 53.1374 101.566C53.3231 102.255 53.514 102.944 53.7102 103.633C56.2138 112.417 59.5801 121.123 63.8092 129.75C68.3698 138.871 73.6601 147.536 79.6802 155.746ZM52.009 104.952C46.3951 109.443 42.0719 114.309 38.9951 119.537C35.7563 125.166 34.0674 132.453 34.0674 141.516C34.0674 149.722 35.136 157.361 37.258 164.445C39.5507 171.312 42.8855 177.267 47.2515 182.336C51.7988 187.404 57.3119 191.433 63.8141 194.422C70.4364 197.383 78.2621 198.896 87.342 198.896C93.7873 198.896 99.7597 198.359 105.265 197.296C109.345 196.373 113.172 195.26 116.748 193.958C110.203 189.89 103.872 185.029 97.7518 179.38L97.7322 179.362L97.7131 179.343C90.7041 172.518 84.16 165.052 78.0802 156.946L78.0737 156.937L78.0673 156.928C71.9805 148.628 66.6313 139.866 62.0204 130.644L62.0169 130.637L62.0134 130.63C57.8582 122.154 54.5223 113.594 52.009 104.952Z" fill="#5A0101"/>
</svg>
