<svg viewBox="0 0 103 80" fill="none" xmlns="http://www.w3.org/2000/svg">
<path fill-rule="evenodd" clip-rule="evenodd" d="M61.1597 40.4326L-2.96631e-07 40.4326L-3.40342e-07 39.4326L61.1597 39.4326L55.0806 33.3536L55.7877 32.6465L63.0739 39.9326L55.7877 47.2187L55.0806 46.5116L61.1597 40.4326Z" fill="#5A0101" stroke="#5A0101" stroke-width="0.5"/>
<path d="M62.4063 74.3584C81.1444 74.3584 96.3347 59.1681 96.3347 40.4299C96.3347 21.6918 81.1444 6.50146 62.4063 6.50146C43.6681 6.50146 28.4778 21.6918 28.4778 40.4299C28.4778 59.1681 43.6681 74.3584 62.4063 74.3584Z" stroke="#5A0101"/>
<path d="M90.2162 44.0312C90.3075 43.4972 90.487 42.9997 90.7548 42.5388C91.0225 42.0779 91.3728 41.6869 91.8055 41.3659C92.2466 41.0462 92.7667 40.8174 93.3657 40.6794C93.9716 40.5511 94.6584 40.5526 95.4261 40.6838C96.2104 40.8179 96.8872 41.0539 97.4563 41.3917C98.0255 41.7295 98.4845 42.1343 98.8332 42.6061C99.1805 43.0863 99.4162 43.6161 99.5404 44.1956C99.6632 44.7834 99.6718 45.386 99.5663 46.0035C99.4992 46.3957 99.4102 46.7154 99.2992 46.9626C99.1868 47.2182 99.0766 47.4356 98.9687 47.6147C98.8608 47.7937 98.7606 47.9527 98.6682 48.0914C98.5758 48.2302 98.516 48.3789 98.4889 48.5374C98.4604 48.7043 98.4856 48.8331 98.5645 48.9239C98.642 49.0231 98.7517 49.0847 98.8936 49.109L98.8657 49.2717L96.03 48.9801L96.0557 48.8299C96.9062 48.7778 97.6129 48.5122 98.1758 48.033C98.7456 47.5636 99.1025 46.9075 99.2466 46.0648C99.4192 45.0552 99.2084 44.229 98.6141 43.5863C98.0197 42.9437 97.0926 42.5146 95.8326 42.2992C95.5072 42.2435 95.1608 42.2101 94.7935 42.1988C94.433 42.1973 94.0725 42.2215 93.7118 42.2715C93.3497 42.3298 92.9993 42.4202 92.6606 42.5426C92.3289 42.6749 92.0255 42.842 91.7505 43.044C91.474 43.2544 91.2378 43.506 91.0417 43.7988C90.8526 44.1014 90.7238 44.4529 90.6553 44.8535C90.5925 45.2206 90.5822 45.5323 90.6242 45.7885C90.6746 46.0462 90.7712 46.2602 90.9138 46.4306C91.0633 46.6108 91.2583 46.7515 91.4986 46.8527C91.7459 46.9637 92.0364 47.0477 92.3701 47.1047L93.9972 47.383C94.2392 47.4243 94.4057 47.3798 94.4967 47.2494C94.5946 47.1287 94.6771 46.8723 94.7442 46.4801L94.9069 46.5079L94.3505 49.7621L94.1878 49.7343C94.2291 49.4923 94.2273 49.2773 94.1821 49.0892C94.1439 48.9109 94.0038 48.8011 93.7618 48.7597L89.6794 48.0746L89.7094 47.8994C90.1766 47.9793 90.5078 48.0015 90.7028 47.9662C90.8963 47.9391 91.0116 47.8172 91.0487 47.6002C91.073 47.4584 91.0548 47.3135 90.9942 47.1658C90.9322 47.0263 90.8168 46.822 90.6482 46.5527C90.5072 46.3225 90.3981 46.1063 90.321 45.9042C90.244 45.7021 90.1884 45.4993 90.1545 45.296C90.1289 45.0941 90.1249 44.8916 90.1424 44.6885C90.1517 44.4839 90.1762 44.2649 90.2162 44.0312Z" fill="white"/>
<path d="M89.3393 51.0903L96.2185 54.2141C96.4883 54.3366 96.6876 54.348 96.8165 54.2485C96.9495 54.1602 97.0791 53.9773 97.2051 53.6998L97.3554 53.768L96.0481 56.6469L95.8978 56.5786C96.0238 56.3012 96.078 56.0794 96.0605 55.9134C96.0506 55.7508 95.9108 55.6083 95.641 55.4858L88.7618 52.3621C88.4921 52.2396 88.2889 52.2264 88.1523 52.3224C88.0234 52.4219 87.8978 52.6066 87.7753 52.8763L87.6197 52.8197L88.9269 49.9408L89.0772 50.0091C88.9512 50.2865 88.8949 50.5027 88.9083 50.6575C88.9259 50.8236 89.0696 50.9678 89.3393 51.0903Z" fill="white"/>
<path d="M91.9485 59.528L93.5512 61.3627L88.4895 67.6228L86.3599 66.4397L86.4637 66.3113C86.8407 66.5182 87.1917 66.6496 87.5166 66.7055C87.8416 66.7614 88.1417 66.7537 88.4171 66.6824C88.699 66.6164 88.9568 66.4928 89.1904 66.3116C89.4306 66.1357 89.6598 65.9128 89.8781 65.6429L90.4529 64.932L84.0448 59.7505C83.8144 59.5643 83.621 59.5005 83.4647 59.5591C83.315 59.6231 83.1443 59.7736 82.9527 60.0106L82.8244 59.9068L84.8123 57.4482L84.9407 57.552C84.7491 57.789 84.6403 57.9841 84.6144 58.1373C84.5897 58.3024 84.6926 58.4781 84.923 58.6644L91.3311 63.8459L91.9139 63.1251C92.1268 62.8618 92.2941 62.5943 92.4159 62.3226C92.5442 62.0562 92.6111 61.7783 92.6165 61.4887C92.6286 61.2046 92.5733 60.9095 92.4506 60.6034C92.3279 60.2974 92.126 59.9817 91.8447 59.6563L91.9485 59.528Z" fill="white"/>
<path d="M79.4669 63.4531C79.2086 63.6148 79.0422 63.7639 78.9679 63.9003C78.8908 64.0484 78.9309 64.2481 79.0881 64.4992L83.0969 70.9031C83.2541 71.1542 83.4139 71.2739 83.5763 71.2621C83.7361 71.262 83.9451 71.1811 84.2034 71.0194L84.291 71.1593L81.6218 72.8302L81.5342 72.6903C81.7853 72.5331 81.9517 72.384 82.0332 72.2431C82.1076 72.1067 82.0743 71.9178 81.9332 71.6765L80.0265 68.6306L76.7223 70.6991L78.6088 73.7127C78.766 73.9638 78.9258 74.0835 79.0882 74.0717C79.2551 74.0671 79.4677 73.9839 79.726 73.8222L79.8136 73.9621L77.1337 75.6398L77.0461 75.4999C77.3044 75.3382 77.4721 75.1833 77.5491 75.0352C77.6235 74.8987 77.5821 74.7049 77.4249 74.4538L73.4026 68.0284C73.2499 67.7844 73.0959 67.6661 72.9407 67.6734C72.7783 67.6852 72.5679 67.7719 72.3096 67.9336L72.222 67.7937L74.9019 66.116L74.9895 66.2559C74.7312 66.4176 74.5613 66.569 74.4797 66.7099C74.4027 66.858 74.4428 67.0576 74.6 67.3088L76.6347 70.5591L79.9389 68.4907L77.8368 65.1327C77.6922 64.9336 77.5409 64.8435 77.383 64.8625C77.2296 64.8886 77.0345 64.9758 76.7977 65.124L76.7101 64.9841L79.3793 63.3132L79.4669 63.4531Z" fill="white"/>
<path d="M73.1204 77.1067L70.0023 77.8257L69.9652 77.6648C70.1137 77.6306 70.2438 77.5919 70.3555 77.5488C70.4589 77.5076 70.542 77.4537 70.6049 77.387C70.6594 77.3223 70.6959 77.2357 70.7144 77.1272C70.7245 77.0206 70.7106 76.8849 70.6725 76.7199L69.5427 71.8201C69.3031 70.7808 68.9139 70.0539 68.3753 69.6395C67.8386 69.2333 67.1949 69.1168 66.4443 69.2899C66.0483 69.3812 65.7 69.5093 65.3992 69.6742C65.0902 69.841 64.8417 70.0634 64.6539 70.3413C64.4679 70.6274 64.3537 70.9795 64.3111 71.3976C64.2685 71.8158 64.3147 72.3176 64.4498 72.9033L65.6281 78.0134C65.7074 78.2818 65.8289 78.4319 65.9926 78.4636C66.1499 78.5055 66.3688 78.4941 66.6493 78.4295L66.6863 78.5903L64.7685 79.0326L64.7314 78.8717C64.8469 78.8451 64.9564 78.8112 65.0598 78.7699C65.1632 78.7287 65.2505 78.6738 65.3216 78.6053C65.3844 78.5387 65.4291 78.4502 65.4558 78.3398C65.4825 78.2294 65.4768 78.0917 65.4387 77.9267L64.2889 72.9404C64.2205 72.6434 64.1713 72.2986 64.1416 71.9058C64.1118 71.5131 64.1652 71.1229 64.3017 70.7352C64.4318 70.3577 64.6806 70.005 65.048 69.677C65.4072 69.3509 65.9497 69.1042 66.6756 68.9368C67.3355 68.7847 67.9072 68.7397 68.3907 68.802C68.8678 68.8744 69.2767 69.0277 69.6174 69.2619C69.9517 69.5062 70.2242 69.8213 70.4348 70.2071C70.6371 70.5948 70.7934 71.0279 70.9038 71.5063L72.0336 76.406C72.0716 76.571 72.1227 76.6982 72.1868 76.7877C72.2426 76.8791 72.3133 76.941 72.399 76.9733C72.4764 77.0076 72.5747 77.0197 72.694 77.0096C72.805 77.0013 72.9348 76.9801 73.0833 76.9459L73.1204 77.1067Z" fill="white"/>
<path d="M59.8369 79.1659L56.2391 78.7761C55.7678 78.725 55.3119 78.6501 54.8713 78.5512C54.4214 78.4599 54.0242 78.3147 53.6796 78.1156C53.3341 77.9249 53.0684 77.6662 52.8824 77.3395C52.6965 77.0128 52.6313 76.5928 52.6869 76.0794C52.758 75.423 53.0039 74.9217 53.4246 74.5756C53.8369 74.2286 54.3422 74.0833 54.9406 74.1396L54.9461 74.0891C54.1382 74.0015 53.5271 73.748 53.1127 73.3284C52.6891 72.9164 52.5114 72.3948 52.5798 71.7636C52.6099 71.4859 52.6881 71.1963 52.8144 70.895C52.9323 70.5927 53.1363 70.321 53.4264 70.08C53.7156 69.8474 54.1096 69.6687 54.6084 69.5439C55.1064 69.4276 55.7509 69.4123 56.542 69.498L60.8341 69.9631L60.8163 70.1272C60.5134 70.0944 60.2905 70.1086 60.1476 70.1697C59.9963 70.23 59.9052 70.4031 59.8742 70.6893L59.052 78.2762C59.0313 78.5465 59.0883 78.7272 59.2232 78.8184C59.3496 78.9088 59.5601 78.9699 59.8547 79.0018L59.8369 79.1659ZM58.0571 74.3751L58.4729 70.5374C58.4893 70.386 58.4857 70.2621 58.4621 70.1659C58.4375 70.0781 58.3817 70.0039 58.2946 69.9434C58.1982 69.8904 58.0625 69.8459 57.8876 69.8099C57.7118 69.7823 57.4808 69.753 57.1947 69.722C56.2352 69.618 55.5022 69.743 54.9956 70.0968C54.4889 70.4506 54.1877 71.0693 54.092 71.953C54.0491 72.3485 54.0813 72.6798 54.1886 72.9469C54.295 73.2224 54.4583 73.4444 54.6784 73.6131C54.8976 73.7901 55.1644 73.9212 55.4787 74.0063C55.7837 74.099 56.1214 74.1654 56.4917 74.2055L58.0571 74.3751ZM58.0406 74.5266L56.7025 74.3816C56.3659 74.3451 56.0518 74.3366 55.7601 74.3561C55.4592 74.3831 55.1953 74.4609 54.9685 74.5896C54.7324 74.7258 54.5366 74.9217 54.3812 75.1774C54.2248 75.4414 54.123 75.7922 54.0755 76.2299C54.0007 76.92 54.1205 77.4651 54.4347 77.8653C54.7406 78.2646 55.2638 78.5043 56.0044 78.5846C56.3326 78.6202 56.5986 78.6405 56.8024 78.6455C57.0053 78.659 57.168 78.6511 57.2904 78.6218C57.4127 78.5925 57.4995 78.538 57.5507 78.4584C57.6019 78.3788 57.6353 78.2675 57.6508 78.1244L58.0406 74.5266Z" fill="white"/>
<path d="M42.0584 62.6887C42.4525 63.0605 42.7673 63.4855 43.0027 63.9637C43.2382 64.4419 43.3698 64.9501 43.3974 65.4882C43.4192 66.0325 43.3217 66.5923 43.1049 67.1675C42.8761 67.743 42.4945 68.314 41.96 68.8805C41.4139 69.4593 40.8427 69.8921 40.2462 70.1789C39.6497 70.4657 39.0585 70.6236 38.4724 70.6526C37.8803 70.6758 37.3086 70.5787 36.7573 70.3612C36.1999 70.1378 35.6933 69.8112 35.2377 69.3813C34.9483 69.1083 34.7314 68.8571 34.587 68.6278C34.4365 68.3926 34.3165 68.1805 34.2272 67.9915C34.1379 67.8025 34.061 67.631 33.9967 67.4772C33.9323 67.3234 33.8416 67.1913 33.7246 67.0809C33.6015 66.9647 33.4803 66.9144 33.361 66.9298C33.2355 66.9394 33.1234 66.9966 33.0246 67.1013L32.9045 66.988L34.7179 64.7884L34.8288 64.893C34.4011 65.63 34.2308 66.3656 34.318 67.0996C34.3933 67.834 34.7418 68.4945 35.3637 69.0813C36.1088 69.7842 36.9134 70.0662 37.7777 69.9273C38.6419 69.7884 39.5127 69.2541 40.3899 68.3243C40.6164 68.0842 40.8361 67.8143 41.049 67.5147C41.2499 67.2154 41.4294 66.9018 41.5875 66.5738C41.7395 66.2401 41.8583 65.8983 41.944 65.5485C42.0176 65.199 42.0465 64.8538 42.0306 64.5129C42.0086 64.1663 41.9299 63.8302 41.7947 63.5048C41.6475 63.1797 41.4262 62.8777 41.1306 62.5989C40.8597 62.3433 40.6059 62.162 40.3693 62.0551C40.1268 61.9544 39.8952 61.9162 39.6743 61.9406C39.4415 61.9653 39.2164 62.0497 38.999 62.1938C38.7696 62.3382 38.5388 62.5335 38.3064 62.7798L37.1736 63.9805C37.0051 64.159 36.95 64.3223 37.0082 64.4703C37.0544 64.6187 37.2222 64.8294 37.5116 65.1024L37.3983 65.2225L34.997 62.9569L35.1103 62.8368C35.2889 63.0053 35.4689 63.1228 35.6505 63.1894C35.8201 63.2563 35.9892 63.2005 36.1577 63.0219L38.9892 60.0024L39.1185 60.1243C38.7931 60.4692 38.5912 60.7325 38.5127 60.9145C38.428 61.0906 38.4657 61.2542 38.6257 61.4052C38.7304 61.504 38.8611 61.569 39.0177 61.6004C39.1681 61.626 39.4022 61.6431 39.7198 61.6518C39.9896 61.662 40.2299 61.6909 40.4409 61.7387C40.6519 61.7864 40.8514 61.8525 41.0395 61.9368C41.2218 62.0274 41.3926 62.1362 41.552 62.2633C41.7172 62.3842 41.886 62.526 42.0584 62.6887Z" fill="white"/>
<path d="M36.6892 58.0772L30.2853 62.0861C30.0342 62.2433 29.9145 62.4031 29.9263 62.5655C29.9264 62.7252 30.0073 62.9342 30.169 63.1925L30.0291 63.2801L28.3514 60.6002L28.4914 60.5126C28.6531 60.7709 28.808 60.9386 28.9561 61.0156C29.097 61.0972 29.293 61.0594 29.5442 60.9022L35.9481 56.8933C36.1992 56.7361 36.3225 56.574 36.3179 56.4072C36.3061 56.2447 36.2216 56.038 36.0644 55.7868L36.1976 55.6885L37.8752 58.3684L37.7353 58.456C37.5736 58.1977 37.4245 58.0314 37.2881 57.957C37.14 57.8799 36.9403 57.92 36.6892 58.0772Z" fill="white"/>
<path d="M28.2302 55.6427L25.8157 55.9668L23.3884 48.291L25.5503 47.1679L25.6001 47.3253C25.2195 47.5255 24.9162 47.7457 24.6903 47.9859C24.4644 48.226 24.3051 48.4805 24.2126 48.7495C24.112 49.021 24.0729 49.3042 24.0951 49.5991C24.1092 49.8965 24.1686 50.2106 24.2732 50.5415L24.5489 51.4132L32.4063 48.9286C32.6888 48.8393 32.8487 48.7132 32.886 48.5505C32.9152 48.3903 32.8839 48.1649 32.792 47.8744L32.9494 47.8246L33.9027 50.8392L33.7453 50.889C33.6534 50.5984 33.5508 50.4001 33.4373 50.2939C33.3132 50.1822 33.1099 50.171 32.8274 50.2603L24.97 52.745L25.2495 53.6288C25.3516 53.9516 25.4823 54.2388 25.6417 54.4902C25.7931 54.7442 25.988 54.9534 26.2264 55.1177C26.4567 55.2846 26.7333 55.4013 27.0563 55.4679C27.3792 55.5345 27.7539 55.5403 28.1804 55.4853L28.2302 55.6427Z" fill="white"/>
<path d="M31.8524 43.0439C31.8607 42.7392 31.8285 42.5182 31.756 42.3807C31.6753 42.2346 31.4868 42.1575 31.1907 42.1495L23.6382 41.9454C23.3421 41.9374 23.154 42.0043 23.0739 42.1461C22.9856 42.2792 22.9374 42.4981 22.9291 42.8027L22.7641 42.7982L22.8492 39.6503L23.0142 39.6548C23.0062 39.951 23.0383 40.172 23.1106 40.3179C23.1831 40.4554 23.3589 40.5321 23.6379 40.5481L27.2301 40.6452L27.3354 36.7484L23.7813 36.6524C23.4851 36.6444 23.297 36.7113 23.217 36.8531C23.1284 36.9946 23.0801 37.2177 23.0718 37.5224L22.9068 37.5179L22.9922 34.3573L23.1573 34.3618C23.149 34.6664 23.1853 34.8918 23.266 35.0379C23.3385 35.1754 23.5228 35.2481 23.819 35.2561L31.3968 35.4609C31.6845 35.4687 31.8683 35.4059 31.9481 35.2726C32.0282 35.1308 32.0723 34.9075 32.0805 34.6029L32.2455 34.6074L32.1601 37.768L31.9951 37.7635C32.0034 37.4589 31.9713 37.2336 31.8991 37.0877C31.8183 36.9415 31.6299 36.8645 31.3337 36.8565L27.5004 36.7529L27.3951 40.6497L31.3553 40.7567C31.6012 40.7464 31.7599 40.6702 31.8315 40.5282C31.8946 40.386 31.9299 40.1752 31.9375 39.896L32.1025 39.9004L32.0174 43.0483L31.8524 43.0439Z" fill="white"/>
<path d="M23.9991 30.1021L25.1344 27.1104L25.2888 27.169C25.2347 27.3115 25.1945 27.4411 25.1683 27.5579C25.1451 27.6668 25.1437 27.7659 25.1642 27.8551C25.1876 27.9365 25.2393 28.0149 25.3193 28.0906C25.4023 28.1583 25.5229 28.2221 25.6812 28.2822L30.3823 30.0663C31.3795 30.4448 32.2001 30.5253 32.844 30.3079C33.4799 30.0875 33.9346 29.6172 34.2079 28.897C34.3521 28.5171 34.4392 28.1563 34.4693 27.8146C34.5024 27.465 34.4556 27.1348 34.329 26.8242C34.1945 26.5106 33.9653 26.2199 33.6414 25.9521C33.3175 25.6843 32.8746 25.4438 32.3126 25.2305L27.4097 23.3698C27.1425 23.2865 26.9502 23.3041 26.8328 23.4225C26.7105 23.53 26.5983 23.7183 26.4962 23.9874L26.3419 23.9288L27.0402 22.0887L27.1945 22.1473C27.1525 22.2581 27.1199 22.368 27.0966 22.4769C27.0734 22.5858 27.0705 22.6888 27.088 22.7859C27.1084 22.8752 27.1571 22.9616 27.2341 23.0451C27.311 23.1286 27.4287 23.2004 27.5869 23.2605L32.3712 25.0762C32.6561 25.1843 32.9701 25.3352 33.3131 25.5287C33.6562 25.7223 33.9509 25.9835 34.1973 26.3125C34.4388 26.6305 34.5937 27.0333 34.6622 27.5211C34.7336 28.0009 34.6371 28.589 34.3728 29.2855C34.1325 29.9187 33.8521 30.4189 33.5317 30.7862C33.2063 31.1426 32.8516 31.3973 32.4675 31.5503C32.0786 31.6925 31.6652 31.7438 31.2274 31.7045C30.7927 31.6572 30.3458 31.5464 29.8867 31.3722L25.1856 29.5881C25.0273 29.528 24.8932 29.4997 24.7832 29.5033C24.6762 29.4989 24.5854 29.5233 24.5109 29.5765C24.4394 29.6218 24.3747 29.6968 24.3168 29.8016C24.2619 29.8985 24.2075 30.0182 24.1534 30.1606L23.9991 30.1021Z" fill="white"/>
<path d="M29.5344 18.0758L31.8505 15.2952C32.1539 14.931 32.4687 14.5927 32.7948 14.2805C33.1199 13.9564 33.4607 13.7059 33.8173 13.5292C34.1673 13.347 34.5298 13.2689 34.9049 13.2948C35.2799 13.3207 35.6658 13.4989 36.0625 13.8294C36.5699 14.252 36.8513 14.7343 36.9067 15.2762C36.9675 15.8116 36.8088 16.3129 36.4306 16.7801L36.4697 16.8127C36.9898 16.1882 37.5392 15.8196 38.118 15.7068C38.6956 15.582 39.2284 15.7228 39.7162 16.1291C39.9308 16.3079 40.1287 16.5333 40.3098 16.8053C40.4962 17.0708 40.6096 17.391 40.6498 17.766C40.6835 18.1356 40.6142 18.5627 40.442 19.0472C40.2632 19.5263 39.9192 20.0716 39.41 20.683L36.6469 24.0002L36.52 23.8946C36.7151 23.6604 36.8267 23.4669 36.8548 23.3141C36.8884 23.1547 36.7946 22.983 36.5734 22.7988L30.7098 17.9146C30.4962 17.7477 30.3141 17.6952 30.1635 17.757C30.0182 17.8123 29.8508 17.9538 29.6612 18.1815L29.5344 18.0758ZM34.5095 19.2453L37.4755 21.7158C37.5926 21.8133 37.6977 21.8789 37.791 21.9124C37.8777 21.9406 37.9703 21.9352 38.069 21.8961C38.1665 21.8452 38.2787 21.7568 38.4054 21.631C38.5257 21.4999 38.678 21.3237 38.8622 21.1026C39.4798 20.3611 39.7815 19.6814 39.7673 19.0636C39.753 18.4458 39.4044 17.8525 38.7215 17.2836C38.4158 17.029 38.122 16.8724 37.8402 16.814C37.5519 16.7501 37.2766 16.7632 37.0143 16.8532C36.7455 16.9378 36.4887 17.0874 36.2438 17.3021C35.9978 17.5048 35.7556 17.7493 35.5172 18.0355L34.5095 19.2453ZM34.3924 19.1477L35.2539 18.1136C35.4706 17.8534 35.6515 17.5965 35.7967 17.3428C35.9408 17.0772 36.022 16.8144 36.0404 16.5543C36.0577 16.2822 36.0029 16.0107 35.876 15.7398C35.7426 15.4634 35.5068 15.1844 35.1686 14.9027C34.6353 14.4584 34.115 14.2564 33.6077 14.2966C33.1059 14.3303 32.6166 14.6333 32.1398 15.2057C31.9285 15.4594 31.7644 15.6697 31.6474 15.8366C31.5238 15.9982 31.4404 16.138 31.3971 16.2562C31.3538 16.3743 31.3511 16.4767 31.389 16.5634C31.427 16.6501 31.5013 16.7395 31.6118 16.8316L34.3924 19.1477Z" fill="white"/>
<path d="M52.5907 12.437C52.0714 12.5913 51.5458 12.6504 51.014 12.6141C50.4822 12.5779 49.9766 12.4367 49.4973 12.1906C49.0155 11.9364 48.5802 11.5712 48.1914 11.0951C47.8084 10.6084 47.5059 9.99178 47.284 9.24525C47.0574 8.48249 46.9696 7.77118 47.0208 7.1113C47.0719 6.45143 47.232 5.86075 47.5009 5.33928C47.7779 4.8154 48.1488 4.36959 48.6136 4.00187C49.0864 3.63174 49.6231 3.35745 50.2236 3.17901C50.6049 3.06567 50.9311 3.00408 51.2019 2.99424C51.4808 2.98199 51.7245 2.98465 51.9328 3.00221C52.1412 3.01978 52.328 3.03932 52.4934 3.06083C52.6587 3.08234 52.8185 3.07018 52.9726 3.02436C53.1349 2.97613 53.2393 2.89654 53.2858 2.78558C53.3405 2.6722 53.3473 2.54654 53.3063 2.4086L53.4645 2.36157L54.4573 5.03377L54.3113 5.07718C53.8883 4.33743 53.3375 3.82113 52.6588 3.52829C51.9858 3.22492 51.2395 3.19501 50.4199 3.43857C49.4381 3.73036 48.7904 4.2849 48.4769 5.10221C48.1635 5.91952 48.1888 6.94081 48.5529 8.16609C48.647 8.48256 48.7702 8.80801 48.9226 9.14247C49.0807 9.46639 49.2619 9.77903 49.4662 10.0804C49.6787 10.3793 49.9147 10.6536 50.1744 10.9032C50.4397 11.1422 50.7238 11.3404 51.0266 11.4977C51.3376 11.6525 51.6677 11.7531 52.0171 11.7994C52.3721 11.8352 52.7444 11.7952 53.1339 11.6795C53.4909 11.5734 53.775 11.4448 53.9862 11.2937C54.195 11.1345 54.3443 10.9533 54.434 10.75C54.5294 10.5362 54.5694 10.2991 54.5538 10.0388C54.544 9.76797 54.4908 9.47026 54.3944 9.14568L53.9241 7.56337C53.8542 7.32805 53.7406 7.19843 53.5834 7.17451C53.4319 7.14006 53.1654 7.17951 52.784 7.29285L52.737 7.13461L55.9016 6.19415L55.9487 6.35238C55.7133 6.42231 55.5213 6.51911 55.3726 6.64278C55.2296 6.75593 55.1931 6.93016 55.263 7.16548L56.4544 11.1298L56.284 11.1805C56.149 10.7261 56.0225 10.4192 55.9045 10.26C55.7946 10.0984 55.6342 10.0489 55.4232 10.1116C55.2853 10.1526 55.1635 10.233 55.0578 10.3527C54.9601 10.47 54.8279 10.6639 54.661 10.9342C54.5169 11.1625 54.3712 11.3559 54.2241 11.5145C54.0769 11.673 53.9196 11.8125 53.7523 11.9328C53.5825 12.0451 53.4027 12.1383 53.2128 12.2124C53.0253 12.2946 52.8179 12.3695 52.5907 12.437Z" fill="white"/>
<path d="M59.2367 10.0835L58.9706 2.53297C58.9602 2.23688 58.8817 2.05329 58.7352 1.98222C58.5969 1.90239 58.3754 1.86784 58.0709 1.87857L58.0651 1.7136L61.2248 1.60226L61.2307 1.76723C60.9261 1.77796 60.7034 1.82816 60.5626 1.91783C60.4214 1.99904 60.3561 2.18769 60.3665 2.48379L60.6326 10.0343C60.643 10.3304 60.7216 10.5182 60.8684 10.5977C61.0149 10.6688 61.2362 10.6991 61.5323 10.6887L61.5508 10.8532L58.391 10.9645L58.3852 10.7996C58.6898 10.7888 58.9084 10.743 59.0411 10.6621C59.1819 10.5724 59.2471 10.3796 59.2367 10.0835Z" fill="white"/>
<path d="M65.8456 3.98386L66.7813 1.73452L74.6352 3.50192L74.5172 5.93525L74.3561 5.89901C74.3747 5.46935 74.3372 5.09646 74.2434 4.78036C74.1497 4.46425 74.0099 4.19852 73.8241 3.98317C73.6402 3.75956 73.4152 3.58313 73.1493 3.45387C72.8852 3.31636 72.5839 3.2095 72.2453 3.1333L71.3533 2.93259L69.5441 10.9724C69.4791 11.2614 69.5075 11.4631 69.6293 11.5772C69.753 11.6832 69.9634 11.7696 70.2608 11.8365L70.2245 11.9975L67.1399 11.3034L67.1761 11.1424C67.4735 11.2093 67.6965 11.2204 67.8454 11.1758C68.0044 11.1248 68.1164 10.9548 68.1815 10.6657L69.9907 2.62594L69.0863 2.42244C68.756 2.3481 68.4421 2.3165 68.1445 2.32764C67.8489 2.33052 67.57 2.39359 67.308 2.51685C67.0479 2.63184 66.8078 2.81208 66.5876 3.05756C66.3675 3.30305 66.1739 3.62389 66.0066 4.0201L65.8456 3.98386Z" fill="white"/>
<path d="M74.7259 13.3527C74.9854 13.5125 75.1927 13.5955 75.348 13.6016C75.5149 13.605 75.6761 13.4806 75.8315 13.2283L79.7936 6.79539C79.9489 6.54311 79.9853 6.34681 79.9028 6.20647C79.8318 6.06336 79.6666 5.9119 79.4072 5.75209L79.4937 5.61154L82.175 7.26297L82.0884 7.40352C81.8362 7.24814 81.6288 7.16515 81.4663 7.15455C81.311 7.1484 81.1565 7.26202 81.0028 7.49544L79.1183 10.5551L82.4375 12.5994L84.302 9.57219C84.4574 9.31991 84.4938 9.12361 84.4112 8.98327C84.3331 8.83572 84.1643 8.68204 83.9048 8.52223L83.9914 8.38168L86.6835 10.0398L86.5969 10.1803C86.3374 10.0205 86.1242 9.9389 85.9573 9.93551C85.802 9.92935 85.6467 10.0524 85.4913 10.3047L81.5159 16.7592C81.3649 17.0043 81.3272 17.1948 81.4025 17.3307C81.4851 17.471 81.6561 17.6211 81.9156 17.7809L81.8291 17.9214L79.137 16.2634L79.2235 16.1228C79.483 16.2826 79.694 16.3678 79.8565 16.3784C80.0234 16.3818 80.1845 16.2574 80.3399 16.0051L82.3509 12.74L79.0318 10.6957L76.9542 14.0689C76.8398 14.2868 76.8262 14.4623 76.9132 14.5955C77.0047 14.7214 77.1693 14.8576 77.4072 15.0041L77.3206 15.1446L74.6393 13.4932L74.7259 13.3527Z" fill="white"/>
<path d="M89.8376 12.9906L91.8682 15.4636L91.7406 15.5684C91.6439 15.4506 91.5514 15.3513 91.4631 15.2705C91.3802 15.1962 91.295 15.1457 91.2074 15.119C91.1251 15.0989 91.0313 15.1048 90.926 15.1365C90.826 15.1748 90.7105 15.2477 90.5797 15.3551L86.6936 18.546C85.8692 19.2229 85.3912 19.8947 85.2596 20.5614C85.1345 21.2227 85.3163 21.8511 85.8052 22.4464C86.063 22.7605 86.3327 23.0155 86.6142 23.2116C86.901 23.4142 87.2107 23.5378 87.5431 23.5825C87.8821 23.6218 88.2483 23.5676 88.6417 23.4198C89.0351 23.272 89.4641 23.0074 89.9286 22.626L93.9816 19.298C94.1867 19.1077 94.2671 18.9321 94.2228 18.7714C94.1903 18.6118 94.0828 18.4208 93.9001 18.1984L94.0277 18.0936L95.2767 19.6147L95.1491 19.7195C95.0739 19.6279 94.9948 19.5449 94.9119 19.4706C94.829 19.3963 94.7411 19.3426 94.6481 19.3094C94.5605 19.2827 94.4613 19.282 94.3506 19.3072C94.2398 19.3324 94.119 19.3988 93.9882 19.5062L90.0334 22.7535C89.7978 22.9469 89.5108 23.1443 89.1723 23.3456C88.8337 23.5469 88.4605 23.6726 88.0526 23.7228C87.6566 23.7741 87.23 23.7081 86.7729 23.5249C86.3211 23.3482 85.8588 22.972 85.3861 22.3963C84.9563 21.8729 84.6618 21.3808 84.5026 20.9201C84.3553 20.4605 84.3107 20.0261 84.369 19.6168C84.4392 19.2087 84.6002 18.8246 84.8521 18.4644C85.1094 18.1107 85.4277 17.7781 85.8072 17.4666L89.6933 14.2756C89.8242 14.1682 89.9154 14.0659 89.9671 13.9687C90.0241 13.8781 90.0481 13.7872 90.039 13.6961C90.0352 13.6115 90.0023 13.5181 89.9402 13.4157C89.8834 13.3199 89.8067 13.2132 89.71 13.0954L89.8376 12.9906Z" fill="white"/>
<path d="M97.5806 23.8775L98.833 27.2728C98.9971 27.7175 99.1329 28.1591 99.2405 28.5977C99.359 29.0412 99.4058 29.4615 99.3809 29.8587C99.3639 30.2529 99.2505 30.606 99.0408 30.918C98.831 31.23 98.4839 31.4753 97.9995 31.654C97.38 31.8825 96.8217 31.8855 96.3245 31.6628C95.8302 31.4481 95.4752 31.0603 95.2592 30.4994L95.2116 30.5169C95.4928 31.2794 95.5378 31.9395 95.3465 32.4973C95.1662 33.0601 94.7782 33.4513 94.1825 33.671C93.9204 33.7677 93.6263 33.8266 93.3002 33.8476C92.9771 33.8766 92.643 33.8148 92.2981 33.6624C91.961 33.507 91.6256 33.2337 91.2919 32.8425C90.966 32.4484 90.6654 31.8781 90.39 31.1316L88.8959 27.0811L89.0508 27.024C89.1563 27.3099 89.2682 27.5032 89.3865 27.6039C89.5078 27.7125 89.7035 27.7171 89.9735 27.6175L97.1333 24.9764C97.3845 24.8747 97.5209 24.7432 97.5426 24.5818C97.5672 24.4283 97.5282 24.2126 97.4257 23.9347L97.5806 23.8775ZM94.0829 27.6039L90.4613 28.9398C90.3183 28.9925 90.209 29.0509 90.1334 29.1149C90.0657 29.176 90.0241 29.259 90.0087 29.3639C90.0041 29.4739 90.0247 29.6152 90.0703 29.7878C90.1239 29.9575 90.2005 30.1774 90.3001 30.4474C90.6341 31.3528 91.0722 31.9536 91.6146 32.2498C92.1569 32.546 92.8451 32.5403 93.679 32.2327C94.0523 32.095 94.3346 31.9186 94.526 31.7037C94.7253 31.4858 94.8515 31.2408 94.9045 30.9686C94.9654 30.6935 94.964 30.3962 94.9003 30.0768C94.8475 29.7625 94.7567 29.4306 94.6278 29.0811L94.0829 27.6039ZM94.2258 27.5512L94.6916 28.8139C94.8088 29.1316 94.941 29.4167 95.0883 29.6692C95.2464 29.9266 95.4336 30.1283 95.6498 30.2741C95.8769 30.4249 96.1394 30.513 96.4375 30.5384C96.7436 30.5608 97.1031 30.4959 97.5161 30.3436C98.1673 30.1033 98.6022 29.7534 98.8206 29.2939C99.042 28.8423 99.0238 28.2671 98.766 27.5681C98.6518 27.2584 98.5515 27.0112 98.4653 26.8264C98.3871 26.6387 98.3076 26.4966 98.2269 26.4001C98.1461 26.3035 98.0587 26.2501 97.9647 26.2396C97.8706 26.2292 97.7561 26.2489 97.6211 26.2987L94.2258 27.5512Z" fill="white"/>
</svg>
