<svg viewBox="0 0 1012 1193" fill="none" xmlns="http://www.w3.org/2000/svg">
<path d="M1004.51 303.021C1004.51 466.187 891.314 591.058 714.862 590.226C702.378 590.226 689.893 589.393 677.408 587.728L736.503 369.62C750.652 327.996 803.92 311.346 836.381 311.346V303.021H661.594V311.346C694.054 311.346 734.006 326.331 726.515 367.122L668.252 586.063C594.176 571.911 530.92 522.795 500.956 451.202L490.136 419.568C490.136 417.903 489.304 417.071 489.304 415.406L474.322 371.285C463.502 335.488 499.292 311.346 533.417 311.346V303.854H334.493C421.054 152.343 523.429 7.49226 709.036 7.49226C907.128 7.49226 1004.51 159.836 1004.51 303.021Z" fill="#240000"/>
<path d="M614.152 786.69L517.603 497.821C553.393 548.602 607.493 581.901 666.588 593.556L614.152 786.69Z" fill="#240000"/>
<path d="M7.49087 889.978C7.49087 726.813 120.686 601.942 297.138 602.774C309.622 602.774 322.107 603.607 334.592 605.272L275.497 823.38C261.348 865.004 208.08 881.654 175.619 881.654V889.978H350.406V881.654C317.946 881.654 277.994 866.669 285.485 825.878L343.748 606.936C417.824 621.089 481.08 670.205 511.044 741.798L521.864 773.432C521.864 775.097 522.696 775.929 522.696 777.594L537.678 821.715C548.498 857.512 512.708 881.654 478.583 881.654V889.146H677.507C590.946 1040.66 488.571 1185.51 302.964 1185.51C104.872 1185.51 7.49087 1033.16 7.49087 889.978Z" fill="#240000"/>
<path d="M397.848 406.31L494.397 695.179C458.607 644.398 404.507 611.099 345.412 599.444L397.848 406.31Z" fill="#240000"/>
</svg>
