<svg viewBox="0 0 965 1140" fill="none" xmlns="http://www.w3.org/2000/svg">
<path fill-rule="evenodd" clip-rule="evenodd" d="M375.183 392.909L334.905 571.443L335.148 571.49C387.137 581.452 431.389 608.375 463.337 648.336C458.438 633.771 453.352 618.759 448.187 603.598C420.464 522.223 390.512 436.637 375.183 392.909ZM496.935 742.901C496.935 742.115 496.739 741.526 496.543 740.936C496.347 740.347 496.152 739.757 496.152 738.971L485.967 709.107C483.42 703.002 480.654 697.078 477.677 691.341C447.702 633.568 396.427 594.853 333 582.699L278.161 789.395C273.134 816.854 288.521 831.463 308.843 837.586C317.022 840.051 326 841.141 334.768 841.141V849H170.25V841.141C178.457 841.141 188.077 840.006 198.017 837.586C225.082 830.995 254.52 814.867 264.26 786.126L319.883 580.216C316.058 579.705 312.232 579.276 308.407 578.931C300.481 578.216 292.555 577.859 284.629 577.859C118.545 577.073 12.0001 694.96 12.0001 849C12.0001 984.177 103.66 1128 290.113 1128C460.158 1128 555.982 1002.23 636.102 863.627C637.343 861.481 638.58 859.331 639.813 857.179C640.761 855.526 641.707 853.87 642.65 852.214H455.414V841.141C457.694 841.141 459.983 841.026 462.263 840.8C488.217 838.232 513.088 821.324 512.887 796.298C512.857 792.558 512.267 788.636 511.037 784.555L496.935 742.901ZM654.814 853.921L652.568 857.863C571.23 1000.66 471.941 1139.41 290.113 1139.41C193.677 1139.41 120.988 1102.1 72.545 1046.71C24.3065 991.546 0.586426 919.036 0.586426 849C0.586426 769.322 28.1731 698.381 77.8594 647.403C127.593 596.377 198.799 566.045 284.658 566.445C296.91 566.446 309.157 567.266 321.396 568.904L323.708 569.213L368.107 372.408L364.582 359.77C361.863 353.479 357.642 347.665 352.37 342.344C343.322 333.213 331.445 325.804 319.723 320.185C313.487 317.195 307.365 314.745 301.848 312.833C292.451 310.006 282.395 308.621 271.649 309.339L265.561 309.747V290.079H314.27L316.516 286.137C397.628 143.738 492.698 0.586365 674.727 0.586365C771.163 0.586365 843.852 37.9019 892.295 93.2949C940.534 148.454 964.254 220.963 964.254 291C964.254 370.678 936.667 441.619 886.981 492.597C837.247 543.623 766.041 573.955 680.183 573.555C668.377 573.555 660.03 573.523 647.487 571.846L645.355 571.56L595.879 771.277L600.2 784.094C603.352 791.457 608.5 798.137 614.93 804.119C619.441 808.315 624.535 812.121 629.906 815.532C640.968 822.556 652.477 827.547 662.444 831C671.998 833.939 682.236 835.393 693.192 834.66L699.279 834.253V853.921H654.814ZM589.101 751.17L634.166 569.258C581.879 559.037 534.569 531.122 501.053 489.969C534.771 589.996 570.047 694.643 589.101 751.17ZM467.905 397.099C467.905 397.885 468.101 398.474 468.297 399.064C468.493 399.653 468.689 400.243 468.689 401.028L478.873 430.893C481.305 436.72 483.975 442.389 486.87 447.893C517.553 506.232 573.448 546.003 637.161 558.212L692 351.516C692.045 351.271 692.088 351.027 692.129 350.784C692.447 348.905 692.657 347.085 692.763 345.322C693.23 337.586 691.716 330.959 688.757 325.338C688.418 324.694 688.06 324.064 687.684 323.446C686.032 320.732 684.029 318.27 681.743 316.046C680.754 315.083 679.711 314.165 678.621 313.291C678.533 313.22 678.444 313.149 678.354 313.078C677.362 312.294 676.332 311.546 675.268 310.833C673.737 309.807 672.135 308.854 670.475 307.97C666.121 305.652 661.366 303.814 656.428 302.414C647.807 299.969 638.631 298.859 630.073 298.859V291H794.59V298.859C786.412 298.859 776.907 299.996 767.118 302.414C759.753 304.233 752.228 306.777 744.983 310.109C744.153 310.49 743.327 310.882 742.506 311.284C741.405 311.823 740.311 312.381 739.227 312.958C739.02 313.068 738.814 313.179 738.607 313.291C724.91 320.696 712.777 331.152 705.473 345.114C704.953 346.108 704.458 347.12 703.988 348.149C703.222 349.828 702.524 351.554 701.899 353.328C701.819 353.556 701.74 353.786 701.662 354.015L649 560.533C653.224 561.098 656.926 561.464 660.481 561.702C666.816 562.126 672.684 562.141 680.211 562.141C846.296 562.927 952.84 445.04 952.84 291C952.84 155.823 861.18 12 674.727 12C504.679 12 412.875 141.562 332.968 280.373C331.803 282.396 330.641 284.421 329.481 286.448C328.464 288.226 327.448 290.006 326.434 291.786H509.426V298.859C501.148 298.859 492.765 300.373 485.056 303.2C478.445 305.623 472.331 309.012 467.202 313.238C467.181 313.255 467.159 313.273 467.138 313.291C465.125 314.955 463.264 316.748 461.587 318.664C461.488 318.776 461.391 318.889 461.293 319.002C455.859 325.333 452.408 332.968 451.994 341.636C451.786 345.99 452.345 350.605 453.804 355.445L467.905 397.099Z" fill="white"/>
</svg>
