<svg viewBox="0 0 971 1146" fill="none" xmlns="http://www.w3.org/2000/svg">
<mask id="path-1-outside-1_754_5637" maskUnits="userSpaceOnUse" x="0.586426" y="0.586365" width="970" height="1145" fill="black">
<rect fill="white" x="0.586426" y="0.586365" width="970" height="1145"/>
<path fill-rule="evenodd" clip-rule="evenodd" d="M378.183 395.909L337.905 574.443L338.148 574.49C390.137 584.452 434.389 611.375 466.337 651.336C461.438 636.771 456.352 621.759 451.187 606.598C423.464 525.223 393.512 439.637 378.183 395.909ZM499.935 745.901C499.935 745.115 499.739 744.526 499.543 743.936C499.347 743.347 499.152 742.757 499.152 741.971L488.967 712.107C486.42 706.002 483.654 700.078 480.677 694.341C450.702 636.568 399.427 597.853 336 585.699L281.161 792.395C276.134 819.854 291.521 834.463 311.843 840.586C320.022 843.051 329 844.141 337.768 844.141V852H173.25V844.141C181.457 844.141 191.077 843.006 201.017 840.586C228.082 833.995 257.52 817.867 267.26 789.126L322.883 583.216C319.058 582.705 315.232 582.276 311.407 581.931C303.481 581.216 295.555 580.859 287.629 580.859C121.545 580.073 15.0001 697.96 15.0001 852C15.0001 987.177 106.66 1131 293.113 1131C463.158 1131 558.982 1005.23 639.102 866.627C640.343 864.481 641.58 862.331 642.813 860.179C643.761 858.526 644.707 856.87 645.65 855.214H458.414V844.141C460.694 844.141 462.983 844.026 465.263 843.8C491.217 841.232 516.088 824.324 515.887 799.298C515.857 795.558 515.267 791.636 514.037 787.555L499.935 745.901ZM657.814 856.921L655.568 860.863C574.23 1003.66 474.941 1142.41 293.113 1142.41C196.677 1142.41 123.988 1105.1 75.545 1049.71C27.3065 994.546 3.58643 922.036 3.58643 852C3.58643 772.322 31.1731 701.381 80.8594 650.403C130.593 599.377 201.799 569.045 287.658 569.445C299.91 569.446 312.157 570.266 324.396 571.904L326.708 572.213L371.107 375.408L367.582 362.77C364.863 356.479 360.642 350.665 355.37 345.344C346.322 336.213 334.445 328.804 322.723 323.185C316.487 320.195 310.365 317.745 304.848 315.833C295.451 313.006 285.395 311.621 274.649 312.339L268.561 312.747V293.079H317.27L319.516 289.137C400.628 146.738 495.698 3.58636 677.727 3.58636C774.163 3.58636 846.852 40.9019 895.295 96.2949C943.534 151.454 967.254 223.963 967.254 294C967.254 373.678 939.667 444.619 889.981 495.597C840.247 546.623 769.041 576.955 683.183 576.555C671.377 576.555 663.03 576.523 650.487 574.846L648.355 574.56L598.879 774.277L603.2 787.094C606.352 794.457 611.5 801.137 617.93 807.119C622.441 811.315 627.535 815.121 632.906 818.532C643.968 825.556 655.477 830.547 665.444 834C674.998 836.939 685.236 838.393 696.192 837.66L702.279 837.253V856.921H657.814ZM592.101 754.17L637.166 572.258C584.879 562.037 537.569 534.122 504.053 492.969C537.771 592.996 573.047 697.643 592.101 754.17ZM470.905 400.099C470.905 400.885 471.101 401.474 471.297 402.064C471.493 402.653 471.689 403.243 471.689 404.028L481.873 433.893C484.305 439.72 486.975 445.389 489.87 450.893C520.553 509.232 576.448 549.003 640.161 561.212L695 354.516C695.045 354.271 695.088 354.027 695.129 353.784C695.447 351.905 695.657 350.085 695.763 348.322C696.23 340.586 694.716 333.959 691.757 328.338C691.418 327.694 691.06 327.064 690.684 326.446C689.032 323.732 687.029 321.27 684.743 319.046C683.754 318.083 682.711 317.165 681.621 316.291C681.533 316.22 681.444 316.149 681.354 316.078C680.362 315.294 679.332 314.546 678.268 313.833C676.737 312.807 675.135 311.854 673.475 310.97C669.121 308.652 664.366 306.814 659.428 305.414C650.807 302.969 641.631 301.859 633.073 301.859V294H797.59V301.859C789.412 301.859 779.907 302.996 770.118 305.414C762.753 307.233 755.228 309.777 747.983 313.109C747.153 313.49 746.327 313.882 745.506 314.284C744.405 314.823 743.311 315.381 742.227 315.958C742.02 316.068 741.814 316.179 741.607 316.291C727.91 323.696 715.777 334.152 708.473 348.114C707.953 349.108 707.458 350.12 706.988 351.149C706.222 352.828 705.524 354.554 704.899 356.328C704.819 356.556 704.74 356.786 704.662 357.015L652 563.533C656.224 564.098 659.926 564.464 663.481 564.702C669.816 565.126 675.684 565.141 683.211 565.141C849.296 565.927 955.84 448.04 955.84 294C955.84 158.823 864.18 15 677.727 15C507.679 15 415.875 144.562 335.968 283.373C334.803 285.396 333.641 287.421 332.481 289.448C331.464 291.226 330.448 293.006 329.434 294.786H512.426V301.859C504.148 301.859 495.765 303.373 488.056 306.2C481.445 308.623 475.331 312.012 470.202 316.238C470.181 316.255 470.159 316.273 470.138 316.291C468.125 317.955 466.264 319.748 464.587 321.664C464.488 321.776 464.391 321.889 464.293 322.002C458.859 328.333 455.408 335.968 454.994 344.636C454.786 348.99 455.345 353.605 456.804 358.445L470.905 400.099ZM630.545 839.281L631.23 839.706L631.147 839.53L630.545 839.281Z"/>
</mask>
<path fill-rule="evenodd" clip-rule="evenodd" d="M378.183 395.909L337.905 574.443L338.148 574.49C390.137 584.452 434.389 611.375 466.337 651.336C461.438 636.771 456.352 621.759 451.187 606.598C423.464 525.223 393.512 439.637 378.183 395.909ZM499.935 745.901C499.935 745.115 499.739 744.526 499.543 743.936C499.347 743.347 499.152 742.757 499.152 741.971L488.967 712.107C486.42 706.002 483.654 700.078 480.677 694.341C450.702 636.568 399.427 597.853 336 585.699L281.161 792.395C276.134 819.854 291.521 834.463 311.843 840.586C320.022 843.051 329 844.141 337.768 844.141V852H173.25V844.141C181.457 844.141 191.077 843.006 201.017 840.586C228.082 833.995 257.52 817.867 267.26 789.126L322.883 583.216C319.058 582.705 315.232 582.276 311.407 581.931C303.481 581.216 295.555 580.859 287.629 580.859C121.545 580.073 15.0001 697.96 15.0001 852C15.0001 987.177 106.66 1131 293.113 1131C463.158 1131 558.982 1005.23 639.102 866.627C640.343 864.481 641.58 862.331 642.813 860.179C643.761 858.526 644.707 856.87 645.65 855.214H458.414V844.141C460.694 844.141 462.983 844.026 465.263 843.8C491.217 841.232 516.088 824.324 515.887 799.298C515.857 795.558 515.267 791.636 514.037 787.555L499.935 745.901ZM657.814 856.921L655.568 860.863C574.23 1003.66 474.941 1142.41 293.113 1142.41C196.677 1142.41 123.988 1105.1 75.545 1049.71C27.3065 994.546 3.58643 922.036 3.58643 852C3.58643 772.322 31.1731 701.381 80.8594 650.403C130.593 599.377 201.799 569.045 287.658 569.445C299.91 569.446 312.157 570.266 324.396 571.904L326.708 572.213L371.107 375.408L367.582 362.77C364.863 356.479 360.642 350.665 355.37 345.344C346.322 336.213 334.445 328.804 322.723 323.185C316.487 320.195 310.365 317.745 304.848 315.833C295.451 313.006 285.395 311.621 274.649 312.339L268.561 312.747V293.079H317.27L319.516 289.137C400.628 146.738 495.698 3.58636 677.727 3.58636C774.163 3.58636 846.852 40.9019 895.295 96.2949C943.534 151.454 967.254 223.963 967.254 294C967.254 373.678 939.667 444.619 889.981 495.597C840.247 546.623 769.041 576.955 683.183 576.555C671.377 576.555 663.03 576.523 650.487 574.846L648.355 574.56L598.879 774.277L603.2 787.094C606.352 794.457 611.5 801.137 617.93 807.119C622.441 811.315 627.535 815.121 632.906 818.532C643.968 825.556 655.477 830.547 665.444 834C674.998 836.939 685.236 838.393 696.192 837.66L702.279 837.253V856.921H657.814ZM592.101 754.17L637.166 572.258C584.879 562.037 537.569 534.122 504.053 492.969C537.771 592.996 573.047 697.643 592.101 754.17ZM470.905 400.099C470.905 400.885 471.101 401.474 471.297 402.064C471.493 402.653 471.689 403.243 471.689 404.028L481.873 433.893C484.305 439.72 486.975 445.389 489.87 450.893C520.553 509.232 576.448 549.003 640.161 561.212L695 354.516C695.045 354.271 695.088 354.027 695.129 353.784C695.447 351.905 695.657 350.085 695.763 348.322C696.23 340.586 694.716 333.959 691.757 328.338C691.418 327.694 691.06 327.064 690.684 326.446C689.032 323.732 687.029 321.27 684.743 319.046C683.754 318.083 682.711 317.165 681.621 316.291C681.533 316.22 681.444 316.149 681.354 316.078C680.362 315.294 679.332 314.546 678.268 313.833C676.737 312.807 675.135 311.854 673.475 310.97C669.121 308.652 664.366 306.814 659.428 305.414C650.807 302.969 641.631 301.859 633.073 301.859V294H797.59V301.859C789.412 301.859 779.907 302.996 770.118 305.414C762.753 307.233 755.228 309.777 747.983 313.109C747.153 313.49 746.327 313.882 745.506 314.284C744.405 314.823 743.311 315.381 742.227 315.958C742.02 316.068 741.814 316.179 741.607 316.291C727.91 323.696 715.777 334.152 708.473 348.114C707.953 349.108 707.458 350.12 706.988 351.149C706.222 352.828 705.524 354.554 704.899 356.328C704.819 356.556 704.74 356.786 704.662 357.015L652 563.533C656.224 564.098 659.926 564.464 663.481 564.702C669.816 565.126 675.684 565.141 683.211 565.141C849.296 565.927 955.84 448.04 955.84 294C955.84 158.823 864.18 15 677.727 15C507.679 15 415.875 144.562 335.968 283.373C334.803 285.396 333.641 287.421 332.481 289.448C331.464 291.226 330.448 293.006 329.434 294.786H512.426V301.859C504.148 301.859 495.765 303.373 488.056 306.2C481.445 308.623 475.331 312.012 470.202 316.238C470.181 316.255 470.159 316.273 470.138 316.291C468.125 317.955 466.264 319.748 464.587 321.664C464.488 321.776 464.391 321.889 464.293 322.002C458.859 328.333 455.408 335.968 454.994 344.636C454.786 348.99 455.345 353.605 456.804 358.445L470.905 400.099ZM630.545 839.281L631.23 839.706L631.147 839.53L630.545 839.281Z" fill="white"/>
<path d="M329.434 294.786L330.77 294.105L330.415 293.408L329.64 293.3L329.434 294.786ZM356.065 294.786L357.563 294.698L357.399 291.904L355.163 293.588L356.065 294.786ZM274.268 306.645H272.768V308.249L274.368 308.142L274.268 306.645ZM274.268 298.786V297.286H272.768V298.786H274.268ZM314.222 298.786L315.476 299.609L316.999 297.286H314.222V298.786ZM696.573 843.355H698.073V841.751L696.472 841.858L696.573 843.355ZM696.573 851.214V852.714H698.073V851.214H696.573ZM656.618 851.214L655.331 850.444L653.973 852.714H656.618V851.214ZM372.978 360.874L374.423 360.471L374.397 360.378L374.36 360.289L372.978 360.874ZM454.677 351.78L456.089 352.287L456.089 352.287L454.677 351.78ZM454.984 365.267L456.405 364.788L456.405 364.788L454.984 365.267ZM380.212 384.451L378.797 384.947L378.797 384.948L380.212 384.451ZM380.178 384.352L381.593 383.855L381.593 383.855L380.178 384.352ZM266.659 810.882L267.811 809.922L266.864 808.786L265.715 809.716L266.659 810.882ZM226.711 843.221L225.767 842.055L222.614 844.607L226.669 844.72L226.711 843.221ZM295.193 845.123L295.151 846.622L298.472 846.715L296.345 844.163L295.193 845.123ZM269.512 844.409L269.47 845.909L269.47 845.909L269.512 844.409ZM252.392 843.934L252.35 845.433L252.35 845.433L252.392 843.934ZM703.58 344.825L702.098 344.591L701.446 348.719L704.575 345.947L703.58 344.825ZM742.227 310.584L743.222 311.707L746.182 309.084H742.227V310.584ZM681.354 310.584V309.084H677.598L680.321 311.671L681.354 310.584ZM687.361 316.291L686.328 317.378L686.328 317.378L687.361 316.291ZM732.716 314.388L733.573 315.62L737.806 312.674L732.653 312.89L732.716 314.388ZM719.049 323.9L719.906 325.131L719.906 325.131L719.049 323.9ZM325.19 318.039L324.541 319.391L324.541 319.391L325.19 318.039ZM306.606 310.402L305.352 309.58L304.296 311.19L306.116 311.82L306.606 310.402ZM359.424 341.328L358.359 342.384L358.359 342.384L359.424 341.328ZM342.307 320.057L340.97 320.738L341.041 320.876L341.138 320.997L342.307 320.057ZM409.329 447.548L410.729 447.009L407.911 448.037L409.329 447.548ZM508.247 689.136L509.641 688.582L506.811 689.568L508.247 689.136ZM523.466 789.126L524.936 788.83L521.968 789.213L523.466 789.126ZM523.466 829.905L523.869 828.46L523.005 828.219L522.384 828.865L523.466 829.905ZM566.267 812.427L564.882 813.004L564.882 813.004L566.267 812.427ZM629.847 823.349L630.651 822.083L630.651 822.083L629.847 823.349ZM644.58 854.691L643.79 855.966L643.854 856.005L643.921 856.038L644.58 854.691ZM597.654 827.763L596.996 829.111L596.996 829.111L597.654 827.763ZM367.479 314.388L368.848 313.775L366.096 314.968L367.479 314.388ZM574.352 808.495L572.968 809.075L575.752 807.958L574.352 808.495ZM384.6 314.388L385.977 313.794L383.199 314.926L384.6 314.388ZM590.045 789.957L588.668 790.552L591.438 789.4L590.045 789.957ZM399.818 314.388L400.411 313.011L397.076 311.574L398.425 314.945L399.818 314.388ZM426.45 325.865L425.856 327.243L426.45 327.498L427.043 327.243L426.45 325.865ZM453.081 314.388L454.366 315.163L456.782 311.16L452.488 313.011L453.081 314.388ZM426.45 358.516L425.165 357.741L424.668 358.565L425.21 359.361L426.45 358.516ZM437.863 375.261L439.314 375.644L439.488 374.982L439.103 374.416L437.863 375.261ZM430.254 404.099L428.974 404.881L430.808 407.88L431.705 404.482L430.254 404.099ZM372.978 310.402L373.207 308.92L370.013 308.428L371.698 311.185L372.978 310.402ZM386.502 312.486L386.273 313.969L386.536 314.009L386.796 313.957L386.502 312.486ZM396.013 310.584L396.26 309.104L395.989 309.059L395.719 309.113L396.013 310.584ZM407.427 312.486L407.18 313.966L407.328 313.99L407.477 313.985L407.427 312.486ZM464.495 310.584H465.995V309.033L464.445 309.085L464.495 310.584ZM464.495 316.291L464.521 317.79L465.995 317.765V316.291H464.495ZM361.772 318.039L360.319 318.409L360.612 319.559L361.798 319.538L361.772 318.039ZM359.87 310.584L359.844 309.084L357.948 309.117L358.417 310.955L359.87 310.584ZM468.3 308.682L469.182 309.895L473.027 307.098L468.273 307.182L468.3 308.682ZM405.525 354.336L404.101 354.81L404.749 356.755L406.407 355.549L405.525 354.336ZM394.111 320.057L394.783 318.716L391.543 317.092L392.688 320.531L394.111 320.057ZM424.547 335.313L423.875 336.654L424.705 337.07L425.447 336.513L424.547 335.313ZM432.156 329.607L433.056 330.807L431.324 328.358L432.156 329.607ZM415.036 341.02L414.204 339.772L413.901 339.974L413.725 340.292L415.036 341.02ZM396.013 375.261L394.583 375.713L395.632 379.036L397.325 375.99L396.013 375.261ZM384.6 339.118L385.964 338.494L383.169 339.57L384.6 339.118ZM415.036 405.698L413.672 406.321L414.898 409.003L416.343 406.433L415.036 405.698ZM432.156 375.261L433.464 375.997L433.79 375.417L433.579 374.787L432.156 375.261ZM422.645 346.727L424.068 346.253L423.052 343.205L421.368 345.941L422.645 346.727ZM411.231 365.267L409.954 364.48L409.461 365.282L409.968 366.075L411.231 365.267ZM418.841 377.163L417.577 377.972L417.699 378.162L417.872 378.309L418.841 377.163ZM443.57 398.088L442.601 399.234L444.881 401.163L445.067 398.182L443.57 398.088ZM447.375 337.216L448.872 337.309L446.002 336.61L447.375 337.216ZM434.988 365.267L433.616 364.661L433.376 365.205L433.573 365.765L434.988 365.267ZM508.247 573.098L506.86 573.668L509.662 572.599L508.247 573.098ZM437.863 401.893L436.485 401.302L436.237 401.881L436.476 402.463L437.863 401.893ZM449.277 375.261L450.724 374.866L449.592 370.717L447.898 374.67L449.277 375.261ZM472.104 458.961L470.657 459.356L470.681 459.445L470.716 459.531L472.104 458.961ZM502.541 533.15L501.153 533.719L503.979 532.725L502.541 533.15ZM477.811 449.45L479.25 449.025L476.325 449.654L477.811 449.45ZM498.736 601.632L497.25 601.836L497.377 602.76L498.262 603.055L498.736 601.632ZM527.27 611.143L526.796 612.566L529.719 613.541L528.683 610.639L527.27 611.143ZM498.736 531.248L498.262 529.825L496.808 530.309L497.323 531.752L498.736 531.248ZM504.443 529.345L505.877 528.906L505.427 527.436L503.969 527.922L504.443 529.345ZM540.586 647.286L539.152 647.726L539.163 647.763L539.176 647.799L540.586 647.286ZM571.023 730.986L572.464 730.571L572.45 730.522L572.432 730.474L571.023 730.986ZM592.939 807.077L593.769 808.327L594.684 807.718L594.38 806.662L592.939 807.077ZM578.632 816.589L577.198 817.03L577.789 818.95L579.462 817.838L578.632 816.589ZM563.413 767.13L564.765 766.479L561.98 767.571L563.413 767.13ZM456.804 304.594L456.947 306.087L456.804 303.094V304.594ZM307.614 309.142C297.271 305.949 286.119 304.349 274.168 305.149L274.368 308.142C285.919 307.369 296.703 308.913 306.729 312.008L307.614 309.142ZM275.768 306.645V298.786H272.768V306.645H275.768ZM274.268 300.286H314.222V297.286H274.268V300.286ZM663.227 840.858C673.57 844.051 684.721 845.65 696.673 844.851L696.472 841.858C684.921 842.63 674.137 841.086 664.111 837.992L663.227 840.858ZM695.073 843.355V851.214H698.073V843.355H695.073ZM696.573 849.714H656.618V852.714H696.573V849.714ZM332.964 577.232L378.454 375.591L375.527 374.931L330.037 576.572L332.964 577.232ZM378.435 374.858L374.423 360.471L371.533 361.276L375.546 375.664L378.435 374.858ZM453.389 352C453.654 351.944 453.871 351.902 454.049 351.873C454.23 351.844 454.349 351.83 454.424 351.826C454.509 351.821 454.484 351.831 454.401 351.814C454.313 351.797 454.067 351.731 453.835 351.495C453.585 351.242 453.508 350.954 453.49 350.78C453.476 350.635 453.499 350.555 453.49 350.597C453.484 350.629 453.466 350.696 453.424 350.822C453.383 350.945 453.332 351.088 453.265 351.273L456.089 352.287C456.203 351.968 456.35 351.569 456.424 351.226C456.476 350.984 456.66 350.087 455.97 349.388C455.644 349.057 455.261 348.926 454.987 348.872C454.718 348.818 454.457 348.819 454.248 348.831C453.833 348.856 453.328 348.947 452.774 349.063L453.389 352ZM453.265 351.273C452.902 352.286 452.296 353.969 452.135 356.385C451.974 358.798 452.258 361.876 453.562 365.746L456.405 364.788C455.216 361.261 454.995 358.576 455.128 356.585C455.261 354.598 455.749 353.235 456.089 352.287L453.265 351.273ZM591.517 775L596.441 789.605L599.284 788.647L594.36 774.042L591.517 775ZM641.853 570.835L591.483 774.161L594.395 774.882L644.765 571.556L641.853 570.835ZM519.253 799.604C519.321 798.856 519.24 797.857 519.076 796.71C518.908 795.533 518.636 794.094 518.27 792.419C517.538 789.066 516.417 784.694 514.959 779.444C512.041 768.939 507.755 754.846 502.481 738.203C491.93 704.912 477.408 661.364 461.929 615.798C430.969 524.663 396.17 425.423 381.628 383.955L378.797 384.948C393.339 426.417 428.134 525.644 459.088 616.763C474.566 662.323 489.08 705.848 499.621 739.109C504.892 755.742 509.165 769.794 512.068 780.247C513.52 785.475 514.625 789.785 515.339 793.058C515.697 794.696 515.953 796.057 516.107 797.134C516.265 798.241 516.3 798.95 516.265 799.332L519.253 799.604ZM381.628 383.955L381.593 383.855L378.762 384.848L378.797 384.947L381.628 383.955ZM381.593 383.855C380.386 380.412 379.319 377.369 378.406 374.765L375.575 375.757C376.488 378.362 377.555 381.405 378.762 384.848L381.593 383.855ZM453.562 365.746C498.708 499.673 568.107 705.55 591.517 775L594.36 774.042C570.949 704.592 501.551 498.715 456.405 364.788L453.562 365.746ZM265.715 809.716L225.767 842.055L227.655 844.386L267.602 812.048L265.715 809.716ZM296.345 844.163L267.811 809.922L265.506 811.842L294.04 846.083L296.345 844.163ZM262.43 844.425L268.137 811.135L265.18 810.628L259.473 843.918L262.43 844.425ZM279.493 844.167L268.08 810.402L265.238 811.362L276.651 845.128L279.493 844.167ZM260.91 845.671L269.47 845.909L269.554 842.91L260.993 842.672L260.91 845.671ZM269.47 845.909L278.031 846.147L278.114 843.148L269.554 842.91L269.47 845.909ZM271.007 844.282L268.153 810.755L265.164 811.009L268.017 844.537L271.007 844.282ZM278.031 846.147L286.591 846.384L286.674 843.386L278.114 843.148L278.031 846.147ZM286.591 846.384L295.151 846.622L295.234 843.623L286.674 843.386L286.591 846.384ZM287.926 844.125L267.952 810.122L265.365 811.642L285.339 845.645L287.926 844.125ZM226.669 844.72L243.79 845.196L243.873 842.197L226.753 841.721L226.669 844.72ZM245.063 844.553L267.89 811.738L265.427 810.025L242.6 842.84L245.063 844.553ZM243.79 845.196L252.35 845.433L252.433 842.435L243.873 842.197L243.79 845.196ZM252.35 845.433L260.91 845.671L260.993 842.672L252.433 842.435L252.35 845.433ZM253.769 844.528L268.036 811.476L265.281 810.287L251.014 843.339L253.769 844.528ZM704.575 345.947L743.222 311.707L741.232 309.461L702.585 343.702L704.575 345.947ZM742.227 309.084H681.354V312.084H742.227V309.084ZM708.407 304.643L703.901 333.177L706.864 333.645L711.37 305.111L708.407 304.643ZM703.901 333.177L702.098 344.591L705.062 345.059L706.864 333.645L703.901 333.177ZM680.321 311.671L686.328 317.378L688.395 315.203L682.388 309.496L680.321 311.671ZM687.424 317.789L732.779 315.887L732.653 312.89L687.299 314.792L687.424 317.789ZM731.859 313.157L718.192 322.669L719.906 325.131L733.573 315.62L731.859 313.157ZM718.192 322.669L704.526 332.18L706.239 334.642L719.906 325.131L718.192 322.669ZM686.328 317.378L693.146 323.855L695.212 321.68L688.395 315.203L686.328 317.378ZM693.146 323.855L704.349 334.499L706.416 332.324L695.212 321.68L693.146 323.855ZM719.117 322.401L694.247 321.269L694.111 324.266L718.981 325.398L719.117 322.401ZM325.838 316.686C319.293 313.548 312.876 310.984 307.097 308.985L306.116 311.82C311.797 313.785 318.108 316.307 324.541 319.391L325.838 316.686ZM327.958 294.517L323.714 317.769L326.665 318.308L330.909 295.055L327.958 294.517ZM374.36 360.289C371.211 352.843 366.34 346.176 360.49 340.272L358.359 342.384C364.006 348.083 368.629 354.44 371.597 361.458L374.36 360.289ZM360.49 340.272C350.659 330.351 337.995 322.514 325.838 316.686L324.541 319.391C336.517 325.132 348.854 332.791 358.359 342.384L360.49 340.272ZM355.163 293.588L324.287 316.84L326.092 319.237L356.968 295.984L355.163 293.588ZM328.097 295.467L340.97 320.738L343.644 319.376L330.77 294.105L328.097 295.467ZM354.568 294.874L355.485 310.49L358.48 310.314L357.563 294.698L354.568 294.874ZM343.131 321.31L357.807 311.656L356.158 309.149L341.483 318.804L343.131 321.31ZM355.487 310.52L356.708 325.983L359.699 325.747L358.478 310.284L355.487 310.52ZM356.708 325.983L357.929 341.446L360.92 341.21L359.699 325.747L356.708 325.983ZM341.138 320.997L344.231 324.84L346.568 322.959L343.476 319.117L341.138 320.997ZM344.231 324.84L358.256 342.268L360.593 340.387L346.568 322.959L344.231 324.84ZM358.431 324.382L345.627 322.417L345.172 325.382L357.976 327.348L358.431 324.382ZM551.515 854.724L410.747 447.058L407.911 448.037L548.68 855.703L551.515 854.724ZM407.929 448.086L564.867 855.753L567.667 854.675L410.729 447.009L407.929 448.086ZM575.745 854.659L509.641 688.582L506.854 689.691L572.958 855.768L575.745 854.659ZM506.811 689.568L556.746 855.646L559.619 854.782L509.684 688.704L506.811 689.568ZM523.894 814.41L516.285 854.937L519.233 855.49L526.842 814.963L523.894 814.41ZM538.252 854.917L524.936 788.83L521.995 789.423L535.311 855.51L538.252 854.917ZM521.968 789.213L525.773 855.3L528.768 855.127L524.963 789.04L521.968 789.213ZM500.233 856.253L524.547 830.944L522.384 828.865L498.07 854.174L500.233 856.253ZM523.062 831.349L613.64 856.658L614.447 853.769L523.869 828.46L523.062 831.349ZM355.598 310.98L564.882 813.004L567.651 811.85L358.367 309.825L355.598 310.98ZM599.74 855.193L599.362 827.844L596.362 827.885L596.74 855.234L599.74 855.193ZM564.882 813.004L569.22 823.409L571.989 822.255L567.651 811.85L564.882 813.004ZM630.566 853.897L571.324 821.516L569.885 824.148L629.127 856.53L630.566 853.897ZM569.22 823.409L575.136 837.6L577.905 836.446L571.989 822.255L569.22 823.409ZM575.094 837.487L581.01 855.678L583.863 854.75L577.947 836.559L575.094 837.487ZM576.57 838.522L614.093 837.27L613.993 834.271L576.47 835.524L576.57 838.522ZM629.043 824.616C640.725 832.033 652.807 837.255 663.179 840.843L664.159 838.007C653.948 834.475 642.089 829.346 630.651 822.083L629.043 824.616ZM646.309 853.866L645.238 853.343L643.921 856.038L644.992 856.561L646.309 853.866ZM645.37 853.416L614.833 834.496L613.253 837.046L643.79 855.966L645.37 853.416ZM645.937 854.052L631.204 822.711L628.489 823.988L643.222 855.329L645.937 854.052ZM657.906 851.984L661.431 846.089L658.856 844.549L655.331 850.444L657.906 851.984ZM661.431 846.089L664.956 840.195L662.382 838.655L658.856 844.549L661.431 846.089ZM614.97 836.95L622.872 830.739L621.018 828.381L613.116 834.591L614.97 836.95ZM622.872 830.739L630.774 824.529L628.92 822.17L621.018 828.381L622.872 830.739ZM660.716 843.933L622.517 828.173L621.373 830.947L659.572 846.706L660.716 843.933ZM596.362 789.126V808.495H599.362V789.126H596.362ZM596.362 808.495V827.865H599.362V808.495H596.362ZM596.875 809.624L620.958 830.689L622.933 828.431L598.85 807.366L596.875 809.624ZM614.702 834.423L606.611 830.47L605.294 833.165L613.385 837.118L614.702 834.423ZM606.611 830.47L598.521 826.517L597.204 829.212L605.294 833.165L606.611 830.47ZM596.481 789.711C600.12 798.316 606 805.865 613.022 812.396L615.065 810.199C608.266 803.875 602.677 796.661 599.244 788.542L596.481 789.711ZM613.022 812.396C617.914 816.947 623.374 821.016 629.043 824.616L630.651 822.083C625.106 818.562 619.799 814.603 615.065 810.199L613.022 812.396ZM607.348 832.368L610.352 824.748L607.562 823.648L604.557 831.267L607.348 832.368ZM610.352 824.748L615.439 811.848L612.648 810.747L607.562 823.648L610.352 824.748ZM596.978 819.83L608.281 825.537L609.633 822.859L598.33 817.152L596.978 819.83ZM598.521 826.517L598.313 826.415L596.996 829.111L597.204 829.212L598.521 826.517ZM598.313 826.415L566.925 811.079L565.608 813.775L596.996 829.111L598.313 826.415ZM599.023 827.149L368.848 313.775L366.11 315.002L596.286 828.377L599.023 827.149ZM366.096 314.968L572.968 809.075L575.735 807.916L368.863 313.809L366.096 314.968ZM575.752 807.958L386 313.851L383.199 314.926L572.951 809.033L575.752 807.958ZM383.223 314.983L588.668 790.552L591.422 789.362L385.977 313.794L383.223 314.983ZM591.438 789.4L401.211 313.831L398.425 314.945L588.653 790.514L591.438 789.4ZM399.224 315.766L425.856 327.243L427.043 324.488L400.411 313.011L399.224 315.766ZM427.043 327.243L453.675 315.766L452.488 313.011L425.856 324.488L427.043 327.243ZM451.797 313.613L425.165 357.741L427.734 359.291L454.366 315.163L451.797 313.613ZM425.21 359.361L436.624 376.106L439.103 374.416L427.689 357.671L425.21 359.361ZM436.413 374.878L428.804 403.716L431.705 404.482L439.314 375.644L436.413 374.878ZM431.534 403.317L374.258 309.62L371.698 311.185L428.974 404.881L431.534 403.317ZM372.75 311.885L386.273 313.969L386.73 311.004L373.207 308.92L372.75 311.885ZM386.796 313.957L396.307 312.055L395.719 309.113L386.208 311.015L386.796 313.957ZM395.767 312.063L407.18 313.966L407.674 311.007L396.26 309.104L395.767 312.063ZM407.477 313.985L464.545 312.083L464.445 309.085L407.377 310.987L407.477 313.985ZM462.995 310.584V316.291H465.995V310.584H462.995ZM464.47 314.791L361.747 316.539L361.798 319.538L464.521 317.79L464.47 314.791ZM363.226 317.668L361.323 310.213L358.417 310.955L360.319 318.409L363.226 317.668ZM359.896 312.084L468.326 310.181L468.273 307.182L359.844 309.084L359.896 312.084ZM467.417 307.468L404.642 353.123L406.407 355.549L469.182 309.895L467.417 307.468ZM406.948 353.862L395.534 319.583L392.688 320.531L404.101 354.81L406.948 353.862ZM393.439 321.398L423.875 336.654L425.22 333.972L394.783 318.716L393.439 321.398ZM425.447 336.513L433.056 330.807L431.256 328.407L423.647 334.113L425.447 336.513ZM431.324 328.358L414.204 339.772L415.868 342.268L432.989 330.855L431.324 328.358ZM413.725 340.292L394.702 374.533L397.325 375.99L416.347 341.749L413.725 340.292ZM397.444 374.809L386.03 338.666L383.169 339.57L394.583 375.713L397.444 374.809ZM383.235 339.742L413.672 406.321L416.4 405.074L385.964 338.494L383.235 339.742ZM416.343 406.433L433.464 375.997L430.849 374.526L413.729 404.962L416.343 406.433ZM433.579 374.787L424.068 346.253L421.222 347.201L430.733 375.735L433.579 374.787ZM421.368 345.941L409.954 364.48L412.509 366.053L423.922 347.513L421.368 345.941ZM409.968 366.075L417.577 377.972L420.104 376.355L412.495 364.458L409.968 366.075ZM417.872 378.309L442.601 399.234L444.539 396.943L419.809 376.018L417.872 378.309ZM445.067 398.182L448.872 337.309L445.878 337.122L442.073 397.995L445.067 398.182ZM446.002 336.61L433.616 364.661L436.36 365.873L448.747 337.822L446.002 336.61ZM433.573 365.765L506.833 573.596L509.662 572.599L436.403 364.768L433.573 365.765ZM509.635 572.527L439.251 401.323L436.476 402.463L506.86 573.668L509.635 572.527ZM439.242 402.484L450.656 375.852L447.898 374.67L436.485 401.302L439.242 402.484ZM447.83 375.656L470.657 459.356L473.551 458.567L450.724 374.866L447.83 375.656ZM503.979 532.725L479.25 449.025L476.373 449.875L501.102 533.575L503.979 532.725ZM498.262 603.055L526.796 612.566L527.745 609.72L499.21 600.209L498.262 603.055ZM528.683 610.639L500.149 530.743L497.323 531.752L525.858 611.648L528.683 610.639ZM499.21 532.671L504.917 530.768L503.969 527.922L498.262 529.825L499.21 532.671ZM503.009 529.785L539.152 647.726L542.02 646.847L505.877 528.906L503.009 529.785ZM539.176 647.799L569.613 731.499L572.432 730.474L541.996 646.774L539.176 647.799ZM569.581 731.402L591.498 807.493L594.38 806.662L572.464 730.571L569.581 731.402ZM592.108 805.828L577.801 815.34L579.462 817.838L593.769 808.327L592.108 805.828ZM580.065 816.148L564.847 766.689L561.98 767.571L577.198 817.03L580.065 816.148ZM562.062 767.78L586.791 819.142L589.494 817.84L564.765 766.479L562.062 767.78ZM329.64 293.3L320.129 291.978L319.716 294.949L329.227 296.272L329.64 293.3ZM307.861 311.225L311.669 305.417L309.16 303.772L305.352 309.58L307.861 311.225ZM311.669 305.417L315.476 299.609L312.968 297.964L309.16 303.772L311.669 305.417ZM310.414 306.094H456.804V303.094H310.414V306.094ZM456.661 303.101L334.357 314.797L334.643 317.784L456.947 306.087L456.661 303.101ZM500.381 840.92L613.924 849.995L614.163 847.005L500.62 837.93L500.381 840.92ZM476.325 449.654L481.169 484.883L484.141 484.474L479.297 449.246L476.325 449.654ZM481.169 484.883L497.25 601.836L500.222 601.427L484.141 484.474L481.169 484.883ZM470.716 459.531L481.267 485.248L484.043 484.109L473.492 458.392L470.716 459.531ZM481.267 485.248L501.153 533.719L503.928 532.581L484.043 484.109L481.267 485.248ZM469.437 428.807L481.187 484.986L484.123 484.372L472.374 428.193L469.437 428.807ZM501.041 672.849L528.541 787.903L531.459 787.206L503.959 672.151L501.041 672.849ZM337.905 574.443L334.979 573.783L334.297 576.806L337.341 577.389L337.905 574.443ZM378.183 395.909L381.014 394.917L377.556 385.054L375.256 395.249L378.183 395.909ZM338.148 574.49L337.583 577.436L337.583 577.436L338.148 574.49ZM466.337 651.336L463.994 653.209L469.181 650.379L466.337 651.336ZM451.187 606.598L454.026 605.631L454.026 605.631L451.187 606.598ZM499.543 743.936L502.39 742.99L502.39 742.99L499.543 743.936ZM499.935 745.901H496.935V746.395L497.093 746.863L499.935 745.901ZM499.152 741.971H502.152V741.474L501.991 741.003L499.152 741.971ZM488.967 712.107L491.807 711.138L491.774 711.044L491.736 710.951L488.967 712.107ZM480.677 694.341L483.34 692.96L483.34 692.96L480.677 694.341ZM336 585.699L336.565 582.753L333.818 582.226L333.1 584.93L336 585.699ZM281.161 792.395L278.261 791.626L278.231 791.739L278.21 791.855L281.161 792.395ZM311.843 840.586L312.708 837.714L312.708 837.714L311.843 840.586ZM337.768 844.141H340.768V841.141H337.768V844.141ZM337.768 852V855H340.768V852H337.768ZM173.25 852H170.25V855H173.25V852ZM173.25 844.141V841.141H170.25V844.141H173.25ZM201.017 840.586L201.726 843.501L201.726 843.501L201.017 840.586ZM267.26 789.126L270.102 790.089L270.132 790L270.156 789.909L267.26 789.126ZM322.883 583.216L325.779 583.999L326.671 580.696L323.281 580.243L322.883 583.216ZM311.407 581.931L311.138 584.919L311.138 584.919L311.407 581.931ZM287.629 580.859L287.615 583.859L287.622 583.859H287.629V580.859ZM639.102 866.627L636.505 865.126L636.505 865.126L639.102 866.627ZM642.813 860.179L640.211 858.687L640.211 858.687L642.813 860.179ZM645.65 855.214L648.257 856.699L650.812 852.214H645.65V855.214ZM458.414 855.214H455.414V858.214H458.414V855.214ZM458.414 844.141V841.141H455.414V844.141H458.414ZM465.263 843.8L464.968 840.815L464.968 840.815L465.263 843.8ZM515.887 799.298L518.887 799.274L518.887 799.274L515.887 799.298ZM514.037 787.555L516.909 786.689L516.894 786.64L516.878 786.593L514.037 787.555ZM655.568 860.863L652.961 859.378L652.961 859.378L655.568 860.863ZM657.814 856.921V853.921H656.07L655.207 855.436L657.814 856.921ZM75.545 1049.71L77.8032 1047.73L75.545 1049.71ZM80.8594 650.403L78.7111 648.309L78.7111 648.309L80.8594 650.403ZM287.658 569.445L287.644 572.445L287.657 572.445L287.658 569.445ZM324.396 571.904L323.998 574.877L323.998 574.877L324.396 571.904ZM326.708 572.213L326.31 575.186L329.031 575.55L329.635 572.873L326.708 572.213ZM371.107 375.408L374.033 376.069L374.2 375.331L373.997 374.603L371.107 375.408ZM367.582 362.77L370.472 361.964L370.417 361.767L370.336 361.579L367.582 362.77ZM355.37 345.344L353.239 347.456L353.239 347.456L355.37 345.344ZM322.723 323.185L324.02 320.479L324.02 320.479L322.723 323.185ZM304.848 315.833L305.831 312.998L305.772 312.978L305.712 312.96L304.848 315.833ZM274.649 312.339L274.849 315.333L274.849 315.333L274.649 312.339ZM268.561 312.747H265.561V315.954L268.761 315.74L268.561 312.747ZM268.561 293.079V290.079H265.561V293.079H268.561ZM317.27 293.079V296.079H319.014L319.877 294.564L317.27 293.079ZM319.516 289.137L316.909 287.652L316.909 287.652L319.516 289.137ZM895.295 96.2949L893.037 98.2698L893.037 98.2698L895.295 96.2949ZM889.981 495.597L887.833 493.503L887.833 493.503L889.981 495.597ZM683.183 576.555L683.197 573.555H683.183V576.555ZM650.487 574.846L650.089 577.819L650.089 577.819L650.487 574.846ZM648.355 574.56L648.752 571.587L646.089 571.231L645.443 573.839L648.355 574.56ZM598.879 774.277L595.967 773.555L595.756 774.405L596.036 775.235L598.879 774.277ZM603.2 787.094L600.357 788.053L600.395 788.166L600.442 788.275L603.2 787.094ZM617.93 807.119L615.887 809.316L615.887 809.316L617.93 807.119ZM632.906 818.532L631.298 821.064L631.298 821.064L632.906 818.532ZM665.444 834L664.462 836.835L664.511 836.852L664.562 836.868L665.444 834ZM696.192 837.66L696.392 840.654L696.392 840.654L696.192 837.66ZM702.279 837.253H705.279V834.046L702.079 834.26L702.279 837.253ZM702.279 856.921V859.921H705.279V856.921H702.279ZM637.166 572.258L640.078 572.979L640.837 569.918L637.742 569.313L637.166 572.258ZM592.101 754.17L589.258 755.129L592.542 764.869L595.013 754.892L592.101 754.17ZM504.053 492.969L506.379 491.074L501.21 493.927L504.053 492.969ZM471.297 402.064L474.144 401.118L474.144 401.118L471.297 402.064ZM470.905 400.099H473.905V399.605L473.747 399.137L470.905 400.099ZM471.689 404.028H468.689V404.526L468.849 404.997L471.689 404.028ZM481.873 433.893L479.034 434.862L479.066 434.956L479.105 435.049L481.873 433.893ZM489.87 450.893L492.525 449.497L492.525 449.497L489.87 450.893ZM640.161 561.212L639.596 564.158L642.343 564.684L643.061 561.981L640.161 561.212ZM695 354.516L697.9 355.285L697.93 355.171L697.951 355.056L695 354.516ZM695.129 353.784L692.171 353.283L692.171 353.283L695.129 353.784ZM695.763 348.322L692.769 348.141L692.769 348.141L695.763 348.322ZM691.757 328.338L694.412 326.941L694.412 326.941L691.757 328.338ZM690.684 326.446L688.122 328.006L688.122 328.006L690.684 326.446ZM684.743 319.046L686.836 316.896L686.836 316.896L684.743 319.046ZM681.621 316.291L683.498 313.951L683.498 313.951L681.621 316.291ZM681.354 316.078L683.214 313.725L683.214 313.724L681.354 316.078ZM678.268 313.833L676.598 316.325L676.598 316.325L678.268 313.833ZM673.475 310.97L672.065 313.618L672.065 313.618L673.475 310.97ZM659.428 305.414L660.246 302.528L660.246 302.528L659.428 305.414ZM633.073 301.859H630.073V304.859H633.073V301.859ZM633.073 294V291H630.073V294H633.073ZM797.59 294H800.59V291H797.59V294ZM797.59 301.859V304.859H800.59V301.859H797.59ZM770.118 305.414L770.837 308.326L770.837 308.326L770.118 305.414ZM747.983 313.109L749.237 315.834L749.237 315.834L747.983 313.109ZM745.506 314.284L744.187 311.59L744.187 311.59L745.506 314.284ZM742.227 315.958L740.818 313.31L740.818 313.31L742.227 315.958ZM741.607 316.291L740.181 313.652L740.181 313.652L741.607 316.291ZM708.473 348.114L705.815 346.724L705.815 346.724L708.473 348.114ZM706.988 351.149L709.717 352.395L709.717 352.395L706.988 351.149ZM704.899 356.328L702.07 355.332L702.069 355.332L704.899 356.328ZM704.662 357.015L701.821 356.053L701.784 356.162L701.755 356.274L704.662 357.015ZM652 563.533L649.093 562.791L648.26 566.059L651.602 566.506L652 563.533ZM663.481 564.702L663.28 567.696L663.28 567.696L663.481 564.702ZM683.211 565.141L683.225 562.141L683.218 562.141H683.211V565.141ZM335.968 283.373L333.368 281.876L333.368 281.876L335.968 283.373ZM332.481 289.448L329.877 287.958L329.877 287.958L332.481 289.448ZM329.434 294.786L326.827 293.301L324.272 297.786H329.434V294.786ZM512.426 294.786H515.426V291.786H512.426V294.786ZM512.426 301.859V304.859H515.426V301.859H512.426ZM488.056 306.2L487.023 303.383L487.023 303.383L488.056 306.2ZM470.202 316.238L468.294 313.923L468.294 313.923L470.202 316.238ZM470.138 316.291L472.049 318.603L472.05 318.603L470.138 316.291ZM464.587 321.664L462.33 319.687L462.33 319.687L464.587 321.664ZM464.293 322.002L462.017 320.047L462.017 320.048L464.293 322.002ZM454.994 344.636L457.991 344.779L457.991 344.779L454.994 344.636ZM456.804 358.445L453.931 359.311L453.946 359.359L453.962 359.407L456.804 358.445ZM631.23 839.706L629.65 842.256L638.247 847.583L633.945 838.43L631.23 839.706ZM630.545 839.281L631.689 836.508L628.965 841.832L630.545 839.281ZM631.147 839.53L633.862 838.254L633.367 837.201L632.291 836.757L631.147 839.53ZM340.832 575.103L381.109 396.569L375.256 395.249L334.979 573.783L340.832 575.103ZM338.713 571.543L338.47 571.497L337.341 577.389L337.583 577.436L338.713 571.543ZM468.68 649.462C436.283 608.94 391.398 581.639 338.713 571.543L337.583 577.436C388.875 587.264 432.495 613.81 463.994 653.209L468.68 649.462ZM448.347 607.566C453.511 622.724 458.596 637.731 463.494 652.292L469.181 650.379C464.28 635.81 459.192 620.795 454.026 605.631L448.347 607.566ZM375.351 396.902C390.68 440.628 420.629 526.204 448.347 607.566L454.026 605.631C426.299 524.242 396.343 438.645 381.014 394.917L375.351 396.902ZM496.696 744.882C496.892 745.47 496.935 745.649 496.935 745.901H502.935C502.935 744.582 502.587 743.581 502.39 742.99L496.696 744.882ZM496.152 741.971C496.152 743.291 496.5 744.291 496.696 744.882L502.39 742.99C502.195 742.402 502.152 742.224 502.152 741.971H496.152ZM486.128 713.075L496.312 742.94L501.991 741.003L491.807 711.138L486.128 713.075ZM478.014 695.723C480.952 701.384 483.683 707.233 486.199 713.262L491.736 710.951C489.157 704.771 486.355 698.771 483.34 692.96L478.014 695.723ZM335.435 588.646C397.942 600.623 448.454 638.749 478.014 695.723L483.34 692.96C452.95 634.387 400.911 595.083 336.565 582.753L335.435 588.646ZM284.061 793.164L338.9 586.469L333.1 584.93L278.261 791.626L284.061 793.164ZM312.708 837.714C302.939 834.77 294.667 829.876 289.415 822.717C284.221 815.636 281.722 805.989 284.112 792.935L278.21 791.855C275.573 806.26 278.254 817.646 284.577 826.266C290.843 834.807 300.425 840.279 310.977 843.458L312.708 837.714ZM337.768 841.141C329.233 841.141 320.555 840.078 312.708 837.714L310.977 843.458C319.489 846.023 328.766 847.141 337.768 847.141V841.141ZM340.768 852V844.141H334.768V852H340.768ZM170.25 844.141V852H176.25V844.141H170.25ZM200.307 837.671C190.578 840.04 181.197 841.141 173.25 841.141V847.141C181.717 847.141 191.576 845.973 201.726 843.501L200.307 837.671ZM264.419 788.163C255.171 815.449 226.998 831.172 200.307 837.671L201.726 843.501C229.166 836.819 259.868 820.285 270.102 790.089L264.419 788.163ZM311.138 584.919C314.92 585.26 318.702 585.684 322.485 586.19L323.281 580.243C319.413 579.726 315.545 579.292 311.677 578.943L311.138 584.919ZM287.629 583.859C295.465 583.859 303.301 584.212 311.138 584.919L311.677 578.943C303.661 578.22 295.645 577.859 287.629 577.859V583.859ZM18.0001 852C18.0001 775.678 44.3864 708.475 91.1813 660.464C137.962 612.467 205.316 583.469 287.615 583.859L287.643 577.859C203.858 577.462 134.897 607.015 86.8846 656.276C38.8861 705.522 12.0001 774.281 12.0001 852H18.0001ZM293.113 1128C200.73 1128 132.033 1092.4 86.3948 1040.22C40.7034 987.97 18.0001 918.945 18.0001 852H12.0001C12.0001 920.232 35.1266 990.707 81.8783 1044.17C128.684 1097.69 199.043 1134 293.113 1134V1128ZM636.505 865.126C556.382 1003.74 461.329 1128 293.113 1128V1134C464.988 1134 561.583 1006.73 641.7 868.129L636.505 865.126ZM640.211 858.687C638.979 860.837 637.744 862.983 636.505 865.126L641.7 868.129C642.942 865.979 644.181 863.826 645.416 861.671L640.211 858.687ZM643.044 853.729C642.101 855.383 641.157 857.036 640.211 858.687L645.416 861.671C646.365 860.015 647.312 858.357 648.257 856.699L643.044 853.729ZM455.414 844.141V855.214H461.414V844.141H455.414ZM464.968 840.815C462.784 841.031 460.594 841.141 458.414 841.141V847.141C460.795 847.141 463.182 847.021 465.558 846.785L464.968 840.815ZM512.887 799.322C512.979 810.735 507.381 820.411 498.49 827.644C489.567 834.902 477.437 839.581 464.968 840.815L465.558 846.785C479.044 845.451 492.326 840.392 502.276 832.298C512.259 824.178 518.996 812.887 518.887 799.274L512.887 799.322ZM511.164 788.42C512.317 792.245 512.859 795.884 512.887 799.322L518.887 799.274C518.854 795.232 518.216 791.027 516.909 786.689L511.164 788.42ZM497.093 746.863L511.195 788.517L516.878 786.593L502.777 744.939L497.093 746.863ZM658.175 862.348L660.42 858.405L655.207 855.436L652.961 859.378L658.175 862.348ZM293.113 1145.41C476.814 1145.41 576.873 1005.08 658.175 862.348L652.961 859.378C571.587 1002.24 473.067 1139.41 293.113 1139.41V1145.41ZM73.2867 1051.68C122.314 1107.74 195.834 1145.41 293.113 1145.41V1139.41C197.521 1139.41 125.662 1102.46 77.8032 1047.73L73.2867 1051.68ZM0.586426 852C0.586426 922.68 24.5181 995.915 73.2867 1051.68L77.8032 1047.73C30.095 993.177 6.58643 921.393 6.58643 852H0.586426ZM78.7111 648.309C28.4228 699.904 0.586426 771.624 0.586426 852H6.58643C6.58643 773.02 33.9234 702.857 83.0078 652.497L78.7111 648.309ZM287.671 566.445C201.07 566.041 129.061 596.651 78.7111 648.309L83.0078 652.497C132.126 602.102 202.528 572.048 287.644 572.445L287.671 566.445ZM324.794 568.93C312.424 567.275 300.044 566.446 287.658 566.445L287.657 572.445C299.776 572.446 311.89 573.257 323.998 574.877L324.794 568.93ZM327.106 569.239L324.794 568.93L323.998 574.877L326.31 575.186L327.106 569.239ZM368.181 374.748L323.782 571.553L329.635 572.873L374.033 376.069L368.181 374.748ZM364.693 363.576L368.217 376.214L373.997 374.603L370.472 361.964L364.693 363.576ZM353.239 347.456C358.312 352.576 362.29 358.087 364.829 363.96L370.336 361.579C367.436 354.871 362.973 348.755 357.501 343.233L353.239 347.456ZM321.426 325.89C332.967 331.423 344.517 338.653 353.239 347.456L357.501 343.233C348.128 333.773 335.923 326.186 324.02 320.479L321.426 325.89ZM303.866 318.667C309.285 320.546 315.302 322.954 321.426 325.89L324.02 320.479C317.673 317.437 311.445 314.945 305.831 312.998L303.866 318.667ZM274.849 315.333C285.205 314.64 294.9 315.973 303.984 318.706L305.712 312.96C296.002 310.039 285.585 308.601 274.448 309.346L274.849 315.333ZM268.761 315.74L274.849 315.333L274.448 309.346L268.361 309.753L268.761 315.74ZM316.909 287.652L314.664 291.595L319.877 294.564L322.123 290.622L316.909 287.652ZM677.727 0.586365C493.772 0.586365 397.926 145.421 316.909 287.652L322.123 290.622C403.33 148.055 497.624 6.58636 677.727 6.58636V0.586365ZM897.554 94.32C848.527 38.2592 775.007 0.586365 677.727 0.586365V6.58636C773.32 6.58636 845.178 43.5445 893.037 98.2698L897.554 94.32ZM970.254 294C970.254 223.32 946.322 150.085 897.554 94.32L893.037 98.2698C940.745 152.823 964.254 224.607 964.254 294H970.254ZM892.129 497.691C942.418 446.095 970.254 374.376 970.254 294H964.254C964.254 372.979 936.917 443.143 887.833 493.503L892.129 497.691ZM683.169 579.555C769.77 579.958 841.78 549.349 892.129 497.691L887.833 493.503C838.714 543.898 768.312 573.952 683.197 573.555L683.169 579.555ZM650.089 577.819C662.842 579.525 671.358 579.555 683.183 579.555V573.555C671.396 573.555 663.217 573.522 650.885 571.872L650.089 577.819ZM647.957 577.534L650.089 577.819L650.885 571.872L648.752 571.587L647.957 577.534ZM601.791 774.998L651.267 575.282L645.443 573.839L595.967 773.555L601.791 774.998ZM619.973 804.922C613.764 799.146 608.905 792.797 605.957 785.913L600.442 788.275C603.8 796.117 609.235 803.128 615.887 809.316L619.973 804.922ZM634.514 815.999C629.267 812.668 624.326 808.971 619.973 804.922L615.887 809.316C620.557 813.66 625.803 817.575 631.298 821.064L634.514 815.999ZM666.426 831.166C656.619 827.767 645.332 822.868 634.514 815.999L631.298 821.064C642.603 828.243 654.335 833.326 664.462 836.835L666.426 831.166ZM695.992 834.667C685.434 835.373 675.564 833.974 666.326 831.133L664.562 836.868C674.433 839.904 685.038 841.413 696.392 840.654L695.992 834.667ZM702.079 834.26L695.992 834.667L696.392 840.654L702.48 840.247L702.079 834.26ZM634.254 571.536L589.189 753.449L595.013 754.892L640.078 572.979L634.254 571.536ZM501.727 494.863C535.697 536.574 583.632 564.85 636.591 575.202L637.742 569.313C586.126 559.224 539.441 531.67 506.379 491.074L501.727 494.863ZM594.944 753.212C575.889 696.685 540.614 592.037 506.896 492.01L501.21 493.927C534.928 593.954 570.204 698.602 589.258 755.129L594.944 753.212ZM474.144 401.118C473.949 400.53 473.905 400.351 473.905 400.099H467.905C467.905 401.418 468.254 402.419 468.45 403.01L474.144 401.118ZM474.689 404.028C474.689 402.709 474.34 401.709 474.144 401.118L468.45 403.01C468.645 403.598 468.689 403.776 468.689 404.028H474.689ZM484.713 432.925L474.528 403.06L468.849 404.997L479.034 434.862L484.713 432.925ZM492.525 449.497C489.671 444.071 487.039 438.483 484.642 432.738L479.105 435.049C481.57 440.958 484.279 446.707 487.215 452.29L492.525 449.497ZM640.725 558.265C577.87 546.221 522.766 506.994 492.525 449.497L487.215 452.29C518.341 511.47 575.025 551.785 639.596 564.158L640.725 558.265ZM692.171 353.283C692.132 353.513 692.092 353.744 692.049 353.976L697.951 355.056C697.998 354.798 698.043 354.542 698.087 354.286L692.171 353.283ZM692.769 348.141C692.669 349.792 692.472 351.505 692.171 353.283L698.087 354.286C698.422 352.305 698.645 350.378 698.758 348.503L692.769 348.141ZM689.102 329.736C691.791 334.844 693.205 340.921 692.769 348.141L698.758 348.503C699.256 340.252 697.64 333.074 694.412 326.941L689.102 329.736ZM688.122 328.006C688.466 328.571 688.793 329.148 689.103 329.736L694.412 326.941C694.044 326.241 693.655 325.556 693.247 324.886L688.122 328.006ZM682.651 321.196C684.771 323.258 686.611 325.525 688.122 328.006L693.247 324.886C691.452 321.939 689.287 319.281 686.836 316.896L682.651 321.196ZM679.744 318.631C680.763 319.448 681.733 320.303 682.651 321.196L686.836 316.896C685.774 315.863 684.659 314.882 683.498 313.951L679.744 318.631ZM679.494 318.432C679.578 318.498 679.661 318.564 679.744 318.631L683.498 313.951C683.404 313.875 683.309 313.8 683.214 313.725L679.494 318.432ZM676.598 316.325C677.6 316.997 678.567 317.699 679.495 318.432L683.214 313.724C682.158 312.89 681.064 312.096 679.938 311.341L676.598 316.325ZM672.065 313.618C673.642 314.457 675.156 315.359 676.598 316.325L679.938 311.341C678.317 310.255 676.628 309.25 674.885 308.322L672.065 313.618ZM658.61 308.3C663.375 309.651 667.927 311.415 672.065 313.618L674.885 308.322C670.315 305.889 665.357 303.977 660.246 302.528L658.61 308.3ZM633.073 304.859C641.386 304.859 650.284 305.939 658.61 308.3L660.246 302.528C651.33 299.999 641.876 298.859 633.073 298.859V304.859ZM630.073 294V301.859H636.073V294H630.073ZM800.59 301.859V294H794.59V301.859H800.59ZM770.837 308.326C780.412 305.961 789.674 304.859 797.59 304.859V298.859C789.149 298.859 779.403 300.03 769.398 302.501L770.837 308.326ZM749.237 315.834C756.294 312.589 763.64 310.104 770.837 308.326L769.398 302.501C761.867 304.362 754.161 306.966 746.73 310.383L749.237 315.834ZM746.825 316.979C747.624 316.587 748.429 316.206 749.237 315.834L746.73 310.383C745.878 310.774 745.03 311.177 744.187 311.59L746.825 316.979ZM743.636 318.607C744.69 318.046 745.753 317.503 746.825 316.979L744.187 311.59C743.056 312.144 741.932 312.717 740.818 313.31L743.636 318.607ZM743.034 318.93C743.234 318.821 743.435 318.714 743.636 318.607L740.818 313.31C740.605 313.423 740.393 313.537 740.181 313.652L743.034 318.93ZM711.131 349.505C718.085 336.213 729.702 326.137 743.034 318.93L740.181 313.652C726.118 321.254 713.47 332.09 705.815 346.724L711.131 349.505ZM709.717 352.395C710.164 351.415 710.636 350.451 711.131 349.505L705.815 346.724C705.27 347.765 704.751 348.825 704.258 349.904L709.717 352.395ZM707.729 357.324C708.324 355.635 708.988 353.992 709.717 352.395L704.258 349.904C703.456 351.663 702.724 353.472 702.07 355.332L707.729 357.324ZM707.503 357.978C707.577 357.76 707.653 357.542 707.729 357.324L702.069 355.332C701.985 355.571 701.902 355.811 701.821 356.053L707.503 357.978ZM663.681 561.709C660.196 561.476 656.56 561.116 652.398 560.559L651.602 566.506C655.888 567.079 659.656 567.453 663.28 567.696L663.681 561.709ZM683.211 562.141C675.673 562.141 669.901 562.125 663.681 561.709L663.28 567.696C669.73 568.127 675.695 568.141 683.211 568.141V562.141ZM952.84 294C952.84 370.321 926.454 437.525 879.659 485.536C832.878 533.533 765.524 562.531 683.225 562.141L683.197 568.141C766.982 568.538 835.943 538.984 883.956 489.724C931.954 440.478 958.84 371.719 958.84 294H952.84ZM677.727 18C770.11 18 838.808 53.5983 884.445 105.783C930.137 158.03 952.84 227.055 952.84 294H958.84C958.84 225.768 935.714 155.293 888.962 101.834C842.156 48.3131 771.797 12 677.727 12V18ZM338.568 284.869C418.533 145.957 509.563 18 677.727 18V12C505.794 12 413.216 143.167 333.368 281.876L338.568 284.869ZM335.085 290.938C336.244 288.913 337.405 286.89 338.568 284.869L333.368 281.876C332.202 283.902 331.038 285.929 329.877 287.958L335.085 290.938ZM332.04 296.271C333.054 294.492 334.068 292.715 335.085 290.938L329.877 287.958C328.859 289.738 327.842 291.519 326.827 293.301L332.04 296.271ZM515.426 301.859V294.786H509.426V301.859H515.426ZM489.088 309.016C496.471 306.31 504.505 304.859 512.426 304.859V298.859C503.791 298.859 495.058 300.437 487.023 303.383L489.088 309.016ZM472.11 318.553C476.948 314.567 482.758 311.337 489.088 309.016L487.023 303.383C480.133 305.909 473.714 309.457 468.294 313.923L472.11 318.553ZM472.05 318.603C472.07 318.586 472.09 318.569 472.11 318.553L468.294 313.923C468.271 313.941 468.249 313.96 468.226 313.979L472.05 318.603ZM466.843 323.641C468.409 321.854 470.152 320.171 472.049 318.603L468.226 313.978C466.097 315.738 464.12 317.643 462.33 319.687L466.843 323.641ZM466.57 323.956C466.66 323.85 466.752 323.745 466.843 323.64L462.33 319.687C462.225 319.807 462.121 319.927 462.017 320.047L466.57 323.956ZM457.991 344.779C458.369 336.861 461.513 329.847 466.57 323.956L462.017 320.048C456.204 326.819 452.447 335.076 451.998 344.493L457.991 344.779ZM459.676 357.58C458.31 353.045 457.8 348.771 457.991 344.779L451.998 344.493C451.772 349.209 452.381 354.165 453.931 359.311L459.676 357.58ZM632.81 837.156L632.125 836.731L628.965 841.832L629.65 842.256L632.81 837.156ZM628.432 840.806L628.515 840.982L633.945 838.43L633.862 838.254L628.432 840.806ZM629.401 842.055L630.003 842.303L632.291 836.757L631.689 836.508L629.401 842.055ZM173.25 855H337.768V849H173.25V855ZM319.987 582.434L264.364 788.344L270.156 789.909L325.779 583.999L319.987 582.434ZM458.414 858.214H645.65V852.214H458.414V858.214ZM265.561 293.079V312.747H271.561V293.079H265.561ZM317.27 290.079H268.561V296.079H317.27V290.079ZM606.042 786.136L601.722 773.318L596.036 775.235L600.357 788.053L606.042 786.136ZM705.279 856.921V837.253H699.279V856.921H705.279ZM657.814 859.921H702.279V853.921H657.814V859.921ZM692.1 353.746L637.261 560.442L643.061 561.981L697.9 355.285L692.1 353.746ZM797.59 291H633.073V297H797.59V291ZM654.907 564.274L707.569 357.757L701.755 356.274L649.093 562.791L654.907 564.274ZM512.426 291.786H329.434V297.786H512.426V291.786ZM473.747 399.137L459.645 357.483L453.962 359.407L468.064 401.061L473.747 399.137Z" fill="white" mask="url(#path-1-outside-1_754_5637)"/>
</svg>
