<svg  viewBox="0 0 107 146" fill="none" xmlns="http://www.w3.org/2000/svg">
<circle cx="53.0356" cy="53.0356" r="52" transform="rotate(90 53.0356 53.0356)" stroke="white" stroke-width="1"/>
<path opacity="0.2" fill-rule="evenodd" clip-rule="evenodd" d="M2.03564 53.0356C2.03564 81.2022 24.8691 104.036 53.0356 104.036C81.2022 104.036 104.036 81.2022 104.036 53.0356C104.036 24.8691 81.2022 2.03564 53.0356 2.03564C24.8691 2.03564 2.03564 24.8691 2.03564 53.0356ZM0.0356422 53.0356C0.0356409 82.3067 23.7645 106.036 53.0356 106.036C82.3067 106.036 106.036 82.3067 106.036 53.0356C106.036 23.7646 82.3067 0.0356435 53.0356 0.0356422C23.7645 0.0356409 0.0356435 23.7645 0.0356422 53.0356Z" fill="white"/>
<path fill-rule="evenodd" clip-rule="evenodd" d="M51.7284 141.743L51.7284 63H53.7284L53.7284 141.743L61.0425 134.429L62.4568 135.843L52.7284 145.571L43 135.843L44.4142 134.429L51.7284 141.743Z" fill="white"/>
</svg>
