<svg width="160" height="160" viewBox="0 0 160 160" fill="none" xmlns="http://www.w3.org/2000/svg">
<g clip-path="url(#clip0_786_6178)">
<path d="M36.4834 135.738L36.5436 135.97C35.8853 136.14 35.4614 136.312 35.2721 136.485C35.0827 136.658 35.1481 136.937 35.4682 137.322L43.0463 146.248L43.9695 135.288C44.0046 134.838 43.9294 134.547 43.744 134.416C43.5552 134.272 43.1575 134.279 42.5508 134.436L42.4857 134.184L45.6417 133.367L45.7068 133.619C45.1647 133.759 44.791 133.939 44.5859 134.157C44.3807 134.375 44.2608 134.737 44.2262 135.242L43.0602 149.096L42.8299 149.403L33.2235 138.069C33.0601 137.863 32.9084 137.703 32.7684 137.587C32.6413 137.469 32.5015 137.381 32.3491 137.324C32.1966 137.267 32.0267 137.249 31.8393 137.27C31.6614 137.275 31.4435 137.31 31.1853 137.377L31.1201 137.126L36.4834 135.738Z" fill="white"/>
<path d="M53.8954 144.38L49.8406 133.192C49.6816 132.753 49.4751 132.516 49.2211 132.481C48.9751 132.428 48.6265 132.483 48.1752 132.647L48.0866 132.403L52.7686 130.706L52.8572 130.95C52.4059 131.114 52.0965 131.297 51.9288 131.499C51.7566 131.689 51.75 132.004 51.909 132.443L55.9638 143.63C56.1228 144.069 56.3316 144.313 56.5901 144.361C56.8441 144.396 57.1904 144.335 57.6292 144.176L57.7366 144.413L53.0546 146.11L52.966 145.866C53.4173 145.702 53.7228 145.528 53.8824 145.342C54.0501 145.139 54.0544 144.819 53.8954 144.38Z" fill="white"/>
<path d="M60.2212 137.034L60.4575 136.926C60.8744 137.835 61.3359 138.569 61.842 139.129C62.3482 139.689 62.877 140.107 63.4286 140.382C63.9867 140.64 64.5554 140.76 65.1347 140.744C65.7084 140.715 66.274 140.573 66.8315 140.318C67.1709 140.162 67.4754 139.978 67.745 139.767C68.0268 139.55 68.2439 139.303 68.3964 139.028C68.5433 138.741 68.6195 138.427 68.6249 138.087C68.6304 137.747 68.5415 137.377 68.3581 136.977C68.1246 136.468 67.7438 136.086 67.2154 135.829C66.6937 135.555 66.0954 135.338 65.4207 135.178C64.7403 135.006 64.0232 134.865 63.2691 134.757C62.5095 134.635 61.7868 134.483 61.1009 134.299C60.4095 134.102 59.7857 133.846 59.2296 133.529C58.68 133.194 58.2719 132.736 58.0051 132.154C57.7605 131.621 57.6584 131.11 57.6987 130.622C57.7511 130.129 57.9008 129.671 58.1477 129.25C58.389 128.817 58.7061 128.437 59.0989 128.11C59.4862 127.771 59.9041 127.499 60.3525 127.293C60.813 127.082 61.2231 126.952 61.5827 126.905C61.9544 126.852 62.2832 126.833 62.569 126.849C62.8614 126.846 63.1208 126.852 63.347 126.866C63.5733 126.879 63.7773 126.845 63.9591 126.761C64.2015 126.65 64.3429 126.526 64.3833 126.391C64.4181 126.243 64.3716 126.029 64.2437 125.751L64.4801 125.642L66.4476 129.933L66.2112 130.041C65.9333 129.435 65.5896 128.925 65.1799 128.512C64.7647 128.086 64.3189 127.77 63.8426 127.563C63.3608 127.344 62.8572 127.237 62.332 127.243C61.8189 127.244 61.3078 127.361 60.7988 127.594C60.0716 127.928 59.631 128.343 59.4771 128.839C59.3176 129.322 59.3601 129.831 59.6047 130.364C59.877 130.958 60.2736 131.407 60.7943 131.711C61.3272 132.009 61.9222 132.235 62.5792 132.389C63.2363 132.542 63.9303 132.664 64.6611 132.754C65.3919 132.844 66.0914 132.978 66.7596 133.156C67.4278 133.333 68.0306 133.592 68.568 133.933C69.1176 134.267 69.5396 134.756 69.8342 135.398C70.0454 135.859 70.1788 136.326 70.2345 136.799C70.2901 137.272 70.2327 137.739 70.0621 138.198C69.898 138.64 69.5971 139.072 69.1593 139.492C68.716 139.901 68.1125 140.28 67.349 140.631C66.8521 140.858 66.4117 141.002 66.0279 141.06C65.6497 141.131 65.311 141.176 65.0121 141.196C64.7075 141.204 64.4328 141.212 64.1878 141.222C63.9495 141.214 63.7212 141.26 63.503 141.36C62.9455 141.616 62.764 141.956 62.9586 142.38L62.7222 142.488L60.2212 137.034Z" fill="white"/>
<path d="M75.3522 134.864L69.5659 124.466C69.3389 124.058 69.0973 123.857 68.8409 123.862C68.5896 123.849 68.2543 123.96 67.8348 124.193L67.7084 123.966L72.0601 121.545L72.1865 121.772C71.767 122.005 71.4907 122.235 71.3575 122.462C71.2178 122.677 71.2614 122.988 71.4883 123.396L77.2746 133.795C77.5015 134.202 77.7464 134.409 78.0093 134.416C78.2657 134.41 78.5978 134.294 79.0056 134.067L79.1495 134.285L74.7978 136.706L74.6714 136.479C75.0909 136.246 75.3646 136.025 75.4927 135.816C75.6259 135.589 75.5791 135.272 75.3522 134.864Z" fill="white"/>
<path d="M76.9324 123.249L75.344 119.756L85.8118 112.6L88.4899 115.348L88.2752 115.495C87.7999 115.012 87.3298 114.656 86.8648 114.424C86.3999 114.193 85.9435 114.069 85.4958 114.052C85.0406 114.024 84.5958 114.094 84.1614 114.262C83.7194 114.418 83.2728 114.651 82.8215 114.959L81.6327 115.772L88.9579 126.488C89.2213 126.873 89.4842 127.057 89.7465 127.039C90.0014 127.01 90.3269 126.86 90.7232 126.589L90.8699 126.804L86.7587 129.614L86.612 129.4C87.0083 129.129 87.2606 128.883 87.369 128.664C87.4809 128.426 87.4051 128.114 87.1418 127.729L79.8165 117.014L78.6112 117.838C78.1709 118.139 77.7975 118.467 77.491 118.821C77.177 119.165 76.9504 119.554 76.8112 119.989C76.6645 120.412 76.6145 120.882 76.6612 121.4C76.7079 121.917 76.8698 122.484 77.147 123.103L76.9324 123.249Z" fill="white"/>
<path d="M96.5112 103.615L96.6815 103.784C96.2024 104.267 95.9256 104.631 95.8511 104.876C95.7765 105.121 95.9753 105.328 96.4473 105.496L107.52 109.303L105.212 104.559L99.534 102.614C99.2885 102.521 99.0761 102.46 98.8969 102.433C98.7271 102.395 98.5621 102.391 98.4019 102.42C98.2417 102.449 98.0864 102.52 97.936 102.634C97.7855 102.729 97.6163 102.871 97.4284 103.06L97.2439 102.877L103.176 96.9015L103.361 97.0847C103.163 97.2834 103.008 97.4678 102.896 97.6379C102.783 97.7892 102.708 97.9497 102.671 98.1196C102.644 98.2799 102.649 98.4543 102.687 98.6428C102.726 98.8123 102.802 99.01 102.916 99.2359L104.198 101.89L112.156 104.633L107.354 94.7367C107.155 94.332 106.942 94.1206 106.716 94.1026C106.48 94.0752 106.141 94.2838 105.7 94.7286L105.515 94.5454L107.826 92.2177L108.01 92.4008C107.813 92.5995 107.658 92.784 107.546 92.9541C107.424 93.1148 107.344 93.2801 107.307 93.4499C107.279 93.6103 107.285 93.7847 107.323 93.9731C107.362 94.1427 107.438 94.3404 107.552 94.5663L113.636 107.06L113.34 107.358L105.566 104.685L108.986 111.744L108.69 112.042L94.8981 107.284C94.6433 107.2 94.4262 107.144 94.247 107.116C94.0771 107.079 93.9121 107.075 93.752 107.104C93.6012 107.123 93.4506 107.19 93.3001 107.304C93.1496 107.398 92.9804 107.54 92.7926 107.73L92.608 107.547L96.5112 103.615ZM102.718 99.4063C102.519 99.0016 102.306 98.7903 102.08 98.7722C101.844 98.7448 101.505 98.9535 101.064 99.3982C100.707 99.7766 100.515 100.074 100.487 100.291C100.469 100.499 100.672 100.672 101.097 100.812L103.858 101.778L102.718 99.4063Z" fill="white"/>
<path d="M120.296 99.1881C120.56 98.8361 120.717 98.5375 120.768 98.2921C120.818 98.0468 120.706 97.7961 120.432 97.5401L110.74 90.2962C110.366 90.0162 110.064 89.9309 109.832 90.0402C109.597 90.1309 109.336 90.3682 109.048 90.7522L108.84 90.5962L115.044 82.3242L118.208 83.3722L118.052 83.5802C117.481 83.3855 116.988 83.2655 116.572 83.2202C116.145 83.1668 115.758 83.1935 115.412 83.3002C115.062 83.3882 114.732 83.5735 114.42 83.8562C114.105 84.1202 113.78 84.4762 113.444 84.9242C113.012 85.5002 112.662 85.9882 112.396 86.3882C112.126 86.7695 111.936 87.1015 111.824 87.3842C111.709 87.6482 111.674 87.8722 111.72 88.0562C111.762 88.2215 111.88 88.3762 112.072 88.5202L116.44 91.7962L117.82 89.9562C118.148 89.5188 118.35 89.1375 118.428 88.8122C118.505 88.4868 118.486 88.1895 118.372 87.9202C118.257 87.6508 118.062 87.3882 117.788 87.1322C117.502 86.8682 117.157 86.5842 116.752 86.2802L116.908 86.0722L122.204 90.0441L122.048 90.2521C121.642 89.9481 121.272 89.6868 120.936 89.4681C120.589 89.2415 120.26 89.1028 119.948 89.0521C119.633 88.9828 119.321 89.0321 119.012 89.2001C118.7 89.3495 118.372 89.6535 118.028 90.1122L116.648 91.9522L121.592 95.6601C121.773 95.7961 121.946 95.8761 122.112 95.9001C122.274 95.9055 122.448 95.8521 122.632 95.7401C122.824 95.6175 123.034 95.4255 123.264 95.1641C123.493 94.9028 123.76 94.5695 124.064 94.1641C124.576 93.4814 124.904 92.8108 125.048 92.1521C125.181 91.4854 125.182 90.8281 125.052 90.1801C124.921 89.5321 124.681 88.8854 124.332 88.2401C123.982 87.5948 123.572 86.9535 123.1 86.3161L123.256 86.1081L126.996 90.6881L120.504 99.3441L120.296 99.1881Z" fill="white"/>
<path d="M117.716 78.5697L120.597 73.6514C120.975 73.0072 121.377 72.4004 121.803 71.8311C122.224 71.2435 122.689 70.7664 123.197 70.3997C123.694 70.0263 124.237 69.8114 124.827 69.7549C125.416 69.6984 126.062 69.8757 126.764 70.2868C127.661 70.8124 128.223 71.4891 128.449 72.3169C128.681 73.1331 128.564 73.953 128.097 74.7766L128.166 74.817C128.813 73.7125 129.572 72.9979 130.442 72.6732C131.307 72.3302 132.171 72.4115 133.034 72.9169C133.414 73.1393 133.779 73.4385 134.131 73.8144C134.489 74.1788 134.748 74.6471 134.907 75.2195C135.055 75.785 135.058 76.4665 134.915 77.2637C134.761 78.0543 134.367 78.9903 133.734 80.0718L130.297 85.9392L130.072 85.8078C130.315 85.3936 130.438 85.0641 130.443 84.8194C130.454 84.5632 130.264 84.3205 129.872 84.0914L119.501 78.0158C119.126 77.8117 118.83 77.7771 118.611 77.912C118.4 78.0354 118.176 78.2985 117.941 78.7011L117.716 78.5697ZM125.748 79.1027L130.995 82.1758C131.202 82.2971 131.382 82.3718 131.535 82.3999C131.677 82.4213 131.82 82.3889 131.963 82.3028C132.102 82.1985 132.253 82.0322 132.418 81.8041C132.571 81.5692 132.762 81.2562 132.991 80.8651C133.759 79.5535 134.053 78.4196 133.871 77.4634C133.689 76.5071 132.995 75.6752 131.787 74.9676C131.246 74.6508 130.749 74.4834 130.296 74.4653C129.832 74.4405 129.407 74.5318 129.023 74.7394C128.627 74.9402 128.267 75.239 127.942 75.6357C127.612 76.0142 127.298 76.4566 127.002 76.9628L125.748 79.1027ZM125.541 78.9814L126.613 77.1521C126.882 76.6919 127.097 76.246 127.257 75.8144C127.413 75.3646 127.471 74.9352 127.433 74.5263C127.389 74.0991 127.234 73.6914 126.967 73.3032C126.688 72.9082 126.25 72.5355 125.652 72.1851C124.708 71.6324 123.848 71.4528 123.07 71.6462C122.299 71.8281 121.617 72.4253 121.024 73.4377C120.761 73.8864 120.56 74.2555 120.421 74.5451C120.271 74.828 120.178 75.0668 120.141 75.2616C120.104 75.4563 120.126 75.6162 120.208 75.7411C120.289 75.866 120.427 75.9857 120.623 76.1003L125.541 78.9814Z" fill="white"/>
<path d="M133.833 67.3053L133.939 67.0678C134.852 67.4744 135.684 67.7206 136.434 67.8063C137.184 67.8921 137.857 67.8559 138.452 67.6978C139.041 67.5222 139.548 67.2368 139.972 66.8418C140.384 66.4413 140.714 65.9609 140.964 65.4005C141.115 65.0595 141.223 64.7204 141.285 64.3833C141.353 64.0341 141.353 63.7058 141.286 63.3985C141.206 63.0857 141.056 62.7999 140.835 62.5412C140.615 62.2825 140.304 62.0637 139.902 61.8848C139.39 61.6571 138.851 61.6216 138.285 61.7783C137.712 61.9174 137.12 62.1499 136.508 62.4758C135.884 62.7963 135.253 63.1649 134.615 63.5815C133.965 63.9926 133.321 64.3558 132.685 64.6708C132.036 64.9805 131.399 65.2001 130.772 65.3297C130.138 65.4417 129.529 65.3676 128.944 65.1073C128.408 64.8687 127.994 64.5531 127.702 64.1603C127.415 63.7554 127.225 63.3132 127.132 62.8339C127.027 62.3492 127.013 61.8544 127.092 61.3495C127.159 60.8391 127.293 60.3586 127.493 59.9079C127.699 59.445 127.921 59.0769 128.16 58.8036C128.404 58.5181 128.638 58.2867 128.863 58.1095C129.081 57.9147 129.279 57.7476 129.458 57.6083C129.637 57.4689 129.767 57.3079 129.848 57.1252C129.957 56.8816 129.981 56.6954 129.922 56.5668C129.85 56.4327 129.674 56.3033 129.394 56.1786L129.5 55.9411L133.812 57.8605L133.706 58.0981C133.097 57.827 132.502 57.6716 131.921 57.632C131.328 57.587 130.785 57.6442 130.291 57.8037C129.784 57.9577 129.336 58.2106 128.946 58.5624C128.561 58.902 128.255 59.3276 128.027 59.8392C127.702 60.57 127.645 61.1724 127.858 61.6464C128.058 62.1149 128.426 62.4685 128.962 62.7071C129.559 62.9727 130.153 63.0475 130.745 62.9315C131.342 62.8032 131.937 62.5795 132.532 62.2603C133.126 61.9412 133.728 61.5739 134.336 61.1587C134.944 60.7434 135.557 60.3816 136.176 60.0733C136.795 59.765 137.419 59.5609 138.047 59.4611C138.681 59.3491 139.32 59.4368 139.966 59.7242C140.429 59.9302 140.837 60.1924 141.192 60.5108C141.546 60.8291 141.811 61.2171 141.987 61.6748C142.156 62.1149 142.215 62.6375 142.165 63.2426C142.102 63.8423 141.9 64.5258 141.559 65.2932C141.336 65.7927 141.101 66.1912 140.851 66.4889C140.614 66.792 140.39 67.0498 140.179 67.2622C139.955 67.4692 139.755 67.6573 139.577 67.8264C139.393 67.9779 139.252 68.1633 139.155 68.3826C138.905 68.9429 138.994 69.318 139.42 69.5077L139.314 69.7453L133.833 67.3053Z" fill="white"/>
<path d="M143.837 55.4066L132.619 51.436C132.179 51.2803 131.865 51.2893 131.676 51.4629C131.479 51.6195 131.301 51.9241 131.141 52.3766L130.896 52.2898L132.557 47.5952L132.802 47.682C132.642 48.1344 132.587 48.4898 132.637 48.7479C132.675 49.0017 132.914 49.2064 133.353 49.3621L144.571 53.3326C145.011 53.4883 145.332 53.4816 145.533 53.3124C145.722 53.1388 145.894 52.832 146.05 52.3921L146.302 52.46L144.64 57.1546L144.395 57.0678C144.555 56.6153 144.614 56.2685 144.572 56.0274C144.522 55.7692 144.277 55.5623 143.837 55.4066Z" fill="white"/>
<path d="M137.183 46.0852L133.683 44.5124L136.814 32.2249L140.64 32.5185L140.575 32.7705C139.9 32.7222 139.311 32.7648 138.809 32.8984C138.307 33.032 137.883 33.2403 137.535 33.5233C137.175 33.803 136.888 34.1494 136.672 34.5623C136.444 34.972 136.262 35.4417 136.128 35.9715L135.772 37.3669L148.35 40.5713C148.802 40.6865 149.121 40.6508 149.306 40.464C149.479 40.274 149.624 39.9464 149.742 39.4813L149.994 39.5455L148.765 44.3713L148.513 44.3071C148.632 43.842 148.659 43.4912 148.595 43.2549C148.522 43.0023 148.259 42.8184 147.807 42.7032L135.229 39.4988L134.868 40.9136C134.737 41.4304 134.673 41.9233 134.678 42.3922C134.669 42.8579 134.756 43.2997 134.938 43.7177C135.108 44.1324 135.381 44.5184 135.758 44.8758C136.135 45.2332 136.631 45.5524 137.248 45.8332L137.183 46.0852Z" fill="white"/>
<path d="M151.558 31.2513C151.617 30.8153 151.609 30.4779 151.534 30.2389C151.459 30 151.239 29.8356 150.874 29.7457L138.882 28.139C138.419 28.0762 138.113 28.1491 137.964 28.3576C137.803 28.551 137.69 28.8856 137.626 29.3612L137.368 29.3263L138.758 19.0801L142.032 18.4546L141.997 18.7122C141.404 18.8201 140.915 18.9556 140.529 19.1186C140.131 19.2798 139.806 19.4914 139.555 19.7534C139.293 20.0004 139.094 20.3233 138.959 20.7221C138.813 21.1059 138.702 21.5753 138.627 22.1302C138.53 22.8437 138.463 23.44 138.425 23.9192C138.375 24.3835 138.37 24.7663 138.41 25.0677C138.439 25.3541 138.517 25.5667 138.647 25.7053C138.764 25.8289 138.942 25.9068 139.18 25.9391L144.59 26.6731L144.9 24.394C144.973 23.8523 144.964 23.4205 144.874 23.0987C144.783 22.7769 144.622 22.5263 144.39 22.3469C144.159 22.1675 143.861 22.0329 143.496 21.9431C143.119 21.8515 142.679 21.7716 142.177 21.7035L142.212 21.4459L148.771 22.3358L148.737 22.5934C148.234 22.5253 147.783 22.4776 147.383 22.4502C146.97 22.4211 146.615 22.4604 146.318 22.5681C146.009 22.6608 145.761 22.8558 145.573 23.1532C145.373 23.4355 145.234 23.8608 145.157 24.4289L144.848 26.708L150.972 27.5388C151.197 27.5693 151.387 27.5548 151.543 27.4952C151.688 27.4206 151.813 27.2896 151.919 27.1022C152.027 26.9016 152.118 26.6313 152.191 26.2913C152.264 25.9514 152.334 25.5304 152.402 25.0283C152.517 24.1828 152.477 23.4373 152.282 22.7918C152.074 22.1446 151.755 21.5699 151.325 21.0676C150.895 20.5652 150.371 20.1173 149.751 19.7238C149.132 19.3303 148.461 18.9702 147.738 18.6434L147.773 18.3858L153.27 20.5645L151.816 31.2863L151.558 31.2513Z" fill="white"/>
</g>
<defs>
<clipPath id="clip0_786_6178">
<rect width="160" height="160" fill="white"/>
</clipPath>
</defs>
</svg>
