<svg width="160" height="160" viewBox="0 0 160 160" fill="none" xmlns="http://www.w3.org/2000/svg">
<g clip-path="url(#clip0_786_6198)">
<path d="M24.2625 36.4832L24.0301 36.5433C23.8597 35.885 23.6881 35.4612 23.5151 35.2718C23.3421 35.0824 23.0629 35.1478 22.6775 35.4679L13.7515 43.0461L24.7125 43.9692C25.1623 44.0043 25.4527 43.9291 25.5837 43.7437C25.7277 43.555 25.7212 43.1573 25.5642 42.5506L25.8159 42.4854L26.6327 45.6415L26.381 45.7066C26.2407 45.1645 26.0613 44.7908 25.843 44.5856C25.6246 44.3805 25.263 44.2606 24.7582 44.2259L10.9042 43.0599L10.5967 42.8296L21.9313 33.2233C22.1369 33.0599 22.2974 32.9082 22.4126 32.7682C22.5312 32.6411 22.619 32.5013 22.676 32.3488C22.7329 32.1964 22.7509 32.0264 22.73 31.839C22.7253 31.6612 22.6895 31.4432 22.6227 31.185L22.8744 31.1199L24.2625 36.4832Z" fill="white"/>
<path d="M15.6199 53.8954L26.8078 49.8406C27.2466 49.6816 27.4837 49.4751 27.5193 49.2211C27.572 48.9751 27.5165 48.6265 27.353 48.1752L27.5974 48.0866L29.2943 52.7686L29.0499 52.8572C28.8863 52.4059 28.7032 52.0965 28.5006 51.9288C28.3106 51.7566 27.9962 51.75 27.5574 51.909L16.3696 55.9638C15.9308 56.1228 15.6874 56.3316 15.6393 56.5901C15.6037 56.8441 15.6654 57.1904 15.8244 57.6292L15.5868 57.7366L13.8899 53.0546L14.1343 52.966C14.2979 53.4173 14.4724 53.7228 14.6579 53.8824C14.8605 54.0501 15.1812 54.0544 15.6199 53.8954Z" fill="white"/>
<path d="M22.9656 60.2212L23.074 60.4575C22.165 60.8744 21.4306 61.3359 20.8706 61.842C20.3106 62.3482 19.893 62.877 19.6179 63.4286C19.3605 63.9867 19.2399 64.5554 19.2562 65.1347C19.2846 65.7084 19.4266 66.274 19.6822 66.8315C19.8379 67.1709 20.0215 67.4754 20.2332 67.745C20.4504 68.0268 20.6967 68.2439 20.9719 68.3964C21.2593 68.5433 21.573 68.6195 21.9129 68.6249C22.2528 68.6304 22.6227 68.5415 23.0226 68.3581C23.5316 68.1246 23.9144 67.7438 24.1708 67.2154C24.445 66.6937 24.662 66.0954 24.822 65.4207C24.994 64.7403 25.1345 64.0232 25.2435 63.2691C25.3645 62.5095 25.5171 61.7868 25.7013 61.1009C25.8977 60.4095 26.1543 59.7857 26.4714 59.2296C26.8061 58.68 27.2644 58.2719 27.8461 58.0051C28.3794 57.7605 28.8899 57.6584 29.3778 57.6987C29.8712 57.7511 30.3286 57.9008 30.7498 58.1477C31.1832 58.389 31.5633 58.7061 31.8901 59.0989C32.2291 59.4862 32.5014 59.9041 32.7071 60.3525C32.9183 60.813 33.0476 61.2231 33.0952 61.5827C33.1483 61.9544 33.167 62.2832 33.1514 62.569C33.1535 62.8614 33.1478 63.1208 33.1342 63.347C33.1206 63.5733 33.1555 63.7773 33.2388 63.9591C33.35 64.2015 33.4735 64.3429 33.6094 64.3833C33.7574 64.4181 33.9707 64.3716 34.2495 64.2437L34.3579 64.4801L30.0675 66.4476L29.9591 66.2112C30.5651 65.9333 31.0748 65.5896 31.4884 65.1799C31.914 64.7647 32.2304 64.3189 32.4373 63.8426C32.6564 63.3608 32.7629 62.8572 32.7567 62.332C32.7561 61.8189 32.6391 61.3078 32.4056 60.7988C32.0722 60.0716 31.6574 59.631 31.1615 59.4771C30.6776 59.3176 30.169 59.3601 29.6358 59.6047C29.0419 59.877 28.593 60.2736 28.2891 60.7943C27.9907 61.3272 27.7648 61.9222 27.6114 62.5792C27.4581 63.2363 27.3362 63.9303 27.246 64.6611C27.1557 65.3919 27.0218 66.0914 26.8442 66.7596C26.6665 67.4278 26.4076 68.0306 26.0673 68.568C25.7325 69.1176 25.244 69.5396 24.6017 69.8342C24.1411 70.0454 23.6742 70.1788 23.201 70.2345C22.7278 70.2901 22.2614 70.2327 21.8018 70.0621C21.3599 69.898 20.9285 69.5971 20.5077 69.1593C20.099 68.716 19.7196 68.1125 19.3695 67.349C19.1416 66.8521 18.9983 66.4117 18.9397 66.0279C18.8689 65.6497 18.8236 65.311 18.8039 65.0121C18.7962 64.7075 18.7876 64.4328 18.7779 64.1878C18.786 63.9495 18.74 63.7212 18.6399 63.503C18.3843 62.9455 18.0443 62.764 17.6201 62.9586L17.5118 62.7222L22.9656 60.2212Z" fill="white"/>
<path d="M25.1356 75.3517L35.5341 69.5654C35.9419 69.3385 36.1431 69.0968 36.1377 68.8404C36.1505 68.5891 36.0402 68.2538 35.8068 67.8343L36.034 67.7079L38.4555 72.0596L38.2283 72.186C37.9949 71.7666 37.7648 71.4902 37.5381 71.357C37.323 71.2173 37.0116 71.2609 36.6038 71.4878L26.2053 77.2741C25.7975 77.501 25.5905 77.7459 25.5842 78.0088C25.5896 78.2652 25.7057 78.5973 25.9326 79.0051L25.7151 79.149L23.2936 74.7974L23.5208 74.6709C23.7542 75.0904 23.9752 75.3641 24.1838 75.4922C24.4105 75.6254 24.7278 75.5786 25.1356 75.3517Z" fill="white"/>
<path d="M36.7508 76.9319L40.2438 75.3435L47.3997 85.8113L44.6516 88.4894L44.5049 88.2747C44.9875 87.7994 45.3445 87.3293 45.5758 86.8643C45.807 86.3994 45.9312 85.943 45.9481 85.4953C45.9761 85.0401 45.9062 84.5953 45.7385 84.1609C45.5817 83.7189 45.349 83.2723 45.0405 82.821L44.2279 81.6322L33.5124 88.9575C33.1271 89.2208 32.9434 89.4837 32.9613 89.746C32.9902 90.0009 33.14 90.3264 33.4109 90.7227L33.1963 90.8694L30.3858 86.7583L30.6005 86.6115C30.8713 87.0078 31.1165 87.2601 31.336 87.3685C31.574 87.4804 31.8856 87.4046 32.2708 87.1413L42.9863 79.816L42.1624 78.6107C41.8614 78.1705 41.5334 77.7971 41.1785 77.4905C40.8346 77.1765 40.4455 76.9499 40.0112 76.8107C39.5879 76.664 39.1176 76.614 38.6004 76.6607C38.0832 76.7074 37.5156 76.8693 36.8975 77.1465L36.7508 76.9319Z" fill="white"/>
<path d="M56.385 96.5112L56.2159 96.6815C55.7334 96.2024 55.3694 95.9256 55.124 95.8511C54.8786 95.7765 54.6719 95.9753 54.5039 96.4473L50.6974 107.52L55.4408 105.212L57.386 99.534C57.4793 99.2885 57.5399 99.0761 57.5675 98.8969C57.6046 98.7271 57.6087 98.5621 57.5798 98.4019C57.551 98.2417 57.4797 98.0864 57.366 97.936C57.2712 97.7855 57.1291 97.6163 56.9399 97.4284L57.1231 97.2439L63.0985 103.176L62.9153 103.361C62.7166 103.163 62.5322 103.008 62.3621 102.896C62.2108 102.783 62.0503 102.708 61.8804 102.671C61.7201 102.644 61.5457 102.649 61.3572 102.687C61.1877 102.726 60.99 102.802 60.7641 102.916L58.11 104.198L55.3671 112.156L65.2633 107.354C65.668 107.155 65.8794 106.942 65.8974 106.716C65.9248 106.48 65.7162 106.141 65.2714 105.7L65.4546 105.515L67.7823 107.826L67.5992 108.01C67.4005 107.813 67.216 107.658 67.0459 107.546C66.8852 107.424 66.7199 107.344 66.5501 107.307C66.3897 107.279 66.2153 107.285 66.0269 107.323C65.8573 107.362 65.6596 107.438 65.4337 107.552L52.94 113.636L52.6419 113.34L55.3148 105.566L48.2561 108.986L47.9581 108.69L52.7163 94.8981C52.8003 94.6433 52.856 94.4262 52.8837 94.247C52.9208 94.0771 52.9249 93.9121 52.896 93.752C52.8766 93.6012 52.8101 93.4506 52.6964 93.3001C52.6015 93.1496 52.4595 92.9804 52.2703 92.7926L52.4534 92.608L56.385 96.5112ZM60.5937 102.718C60.9984 102.519 61.2097 102.306 61.2278 102.08C61.2552 101.844 61.0465 101.505 60.6018 101.064C60.2234 100.707 59.9257 100.515 59.7087 100.487C59.5013 100.469 59.3276 100.672 59.1877 101.097L58.2219 103.858L60.5937 102.718Z" fill="white"/>
<path d="M60.8119 120.295C61.1639 120.559 61.4625 120.716 61.7079 120.767C61.9532 120.818 62.2039 120.706 62.4599 120.431L69.7038 110.739C69.9838 110.366 70.0691 110.063 69.9598 109.831C69.8691 109.596 69.6318 109.335 69.2478 109.047L69.4038 108.839L77.6758 115.043L76.6278 118.207L76.4198 118.051C76.6145 117.48 76.7345 116.987 76.7798 116.571C76.8332 116.144 76.8065 115.758 76.6998 115.411C76.6118 115.062 76.4265 114.731 76.1438 114.419C75.8798 114.104 75.5238 113.779 75.0758 113.443C74.4998 113.011 74.0118 112.662 73.6118 112.395C73.2305 112.126 72.8985 111.935 72.6158 111.823C72.3518 111.708 72.1278 111.674 71.9438 111.719C71.7785 111.762 71.6238 111.879 71.4798 112.071L68.2038 116.439L70.0438 117.819C70.4812 118.147 70.8625 118.35 71.1878 118.427C71.5132 118.504 71.8105 118.486 72.0798 118.371C72.3492 118.256 72.6118 118.062 72.8678 117.787C73.1318 117.502 73.4158 117.156 73.7198 116.751L73.9278 116.907L69.9559 122.203L69.7479 122.047C70.0519 121.642 70.3132 121.271 70.5319 120.935C70.7585 120.588 70.8972 120.259 70.9479 119.947C71.0172 119.632 70.9679 119.32 70.7999 119.011C70.6505 118.699 70.3465 118.371 69.8878 118.027L68.0478 116.647L64.3399 121.591C64.2039 121.772 64.1239 121.946 64.0999 122.111C64.0945 122.274 64.1479 122.447 64.2599 122.631C64.3825 122.823 64.5745 123.034 64.8359 123.263C65.0972 123.492 65.4305 123.759 65.8359 124.063C66.5185 124.575 67.1892 124.903 67.8479 125.047C68.5146 125.18 69.1719 125.182 69.8199 125.051C70.4679 124.92 71.1146 124.68 71.7599 124.331C72.4052 123.982 73.0465 123.571 73.6839 123.099L73.8919 123.255L69.3119 126.995L60.6559 120.503L60.8119 120.295Z" fill="white"/>
<path d="M81.4303 117.716L86.3486 120.597C86.9928 120.975 87.5996 121.377 88.1689 121.803C88.7565 122.224 89.2336 122.689 89.6003 123.197C89.9737 123.694 90.1886 124.237 90.2451 124.827C90.3016 125.416 90.1243 126.062 89.7132 126.764C89.1876 127.661 88.5109 128.223 87.6831 128.449C86.8669 128.681 86.047 128.564 85.2234 128.097L85.183 128.166C86.2875 128.813 87.0021 129.572 87.3268 130.442C87.6698 131.307 87.5885 132.171 87.0831 133.034C86.8607 133.414 86.5615 133.779 86.1856 134.131C85.8212 134.489 85.3529 134.748 84.7805 134.907C84.215 135.055 83.5335 135.058 82.7363 134.915C81.9457 134.761 81.0097 134.367 79.9282 133.734L74.0608 130.297L74.1922 130.072C74.6064 130.315 74.9359 130.438 75.1806 130.443C75.4368 130.454 75.6795 130.264 75.9086 129.872L81.9842 119.501C82.1883 119.126 82.2229 118.83 82.088 118.611C81.9646 118.4 81.7015 118.176 81.2989 117.941L81.4303 117.716ZM80.8973 125.748L77.8242 130.995C77.7029 131.202 77.6282 131.382 77.6001 131.535C77.5787 131.677 77.6111 131.82 77.6972 131.963C77.8015 132.102 77.9678 132.253 78.1959 132.418C78.4308 132.571 78.7438 132.762 79.1349 132.991C80.4465 133.759 81.5804 134.053 82.5366 133.871C83.4929 133.689 84.3248 132.995 85.0324 131.787C85.3492 131.246 85.5166 130.749 85.5347 130.296C85.5595 129.832 85.4682 129.407 85.2606 129.023C85.0598 128.627 84.761 128.267 84.3643 127.942C83.9858 127.612 83.5434 127.298 83.0372 127.002L80.8973 125.748ZM81.0186 125.541L82.8479 126.613C83.3081 126.882 83.754 127.097 84.1856 127.257C84.6354 127.413 85.0648 127.471 85.4737 127.433C85.9009 127.389 86.3086 127.234 86.6968 126.967C87.0918 126.688 87.4645 126.25 87.8149 125.652C88.3676 124.708 88.5472 123.848 88.3538 123.07C88.1719 122.299 87.5747 121.617 86.5623 121.024C86.1136 120.761 85.7445 120.56 85.4549 120.421C85.172 120.271 84.9332 120.178 84.7384 120.141C84.5437 120.104 84.3838 120.126 84.2589 120.208C84.134 120.289 84.0143 120.427 83.8997 120.623L81.0186 125.541Z" fill="white"/>
<path d="M92.6947 133.832L92.9322 133.938C92.5256 134.852 92.2794 135.683 92.1937 136.433C92.1079 137.183 92.1441 137.856 92.3022 138.452C92.4778 139.041 92.7632 139.547 93.1582 139.971C93.5587 140.383 94.0391 140.714 94.5995 140.963C94.9405 141.115 95.2796 141.222 95.6167 141.285C95.9659 141.352 96.2942 141.353 96.6015 141.285C96.9143 141.205 97.2001 141.055 97.4588 140.835C97.7175 140.614 97.9363 140.303 98.1152 139.901C98.3429 139.389 98.3784 138.851 98.2217 138.285C98.0826 137.712 97.8501 137.12 97.5242 136.507C97.2037 135.883 96.8351 135.252 96.4185 134.614C96.0074 133.964 95.6442 133.321 95.3292 132.684C95.0195 132.036 94.7999 131.398 94.6703 130.771C94.5583 130.137 94.6324 129.528 94.8927 128.944C95.1313 128.408 95.4469 127.994 95.8397 127.701C96.2446 127.415 96.6868 127.225 97.1661 127.132C97.6508 127.026 98.1456 127.013 98.6505 127.092C99.1609 127.158 99.6414 127.292 100.092 127.493C100.555 127.699 100.923 127.921 101.196 128.159C101.482 128.403 101.713 128.638 101.89 128.862C102.085 129.08 102.252 129.279 102.392 129.458C102.531 129.636 102.692 129.766 102.875 129.848C103.118 129.956 103.305 129.981 103.433 129.921C103.567 129.85 103.697 129.674 103.821 129.393L104.059 129.499L102.139 133.811L101.902 133.706C102.173 133.097 102.328 132.502 102.368 131.921C102.413 131.328 102.356 130.784 102.196 130.29C102.042 129.784 101.789 129.335 101.438 128.945C101.098 128.561 100.672 128.254 100.161 128.027C99.43 127.701 98.8276 127.645 98.3536 127.857C97.8851 128.057 97.5315 128.425 97.2929 128.961C97.0273 129.558 96.9525 130.152 97.0685 130.744C97.1968 131.341 97.4205 131.937 97.7397 132.531C98.0588 133.126 98.4261 133.727 98.8413 134.335C99.2566 134.943 99.6184 135.557 99.9267 136.176C100.235 136.795 100.439 137.418 100.539 138.046C100.651 138.68 100.563 139.32 100.276 139.965C100.07 140.428 99.8076 140.837 99.4892 141.191C99.1709 141.546 98.7829 141.811 98.3252 141.987C97.8851 142.156 97.3625 142.215 96.7574 142.165C96.1577 142.102 95.4742 141.9 94.7067 141.558C94.2073 141.336 93.8088 141.1 93.5111 140.851C93.208 140.614 92.9502 140.39 92.7378 140.178C92.5308 139.955 92.3427 139.754 92.1736 139.577C92.0221 139.393 91.8367 139.252 91.6174 139.154C91.0571 138.905 90.682 138.993 90.4923 139.419L90.2547 139.314L92.6947 133.832Z" fill="white"/>
<path d="M104.593 143.837L108.564 132.619C108.72 132.179 108.711 131.865 108.537 131.676C108.38 131.479 108.076 131.3 107.623 131.14L107.71 130.895L112.405 132.557L112.318 132.802C111.866 132.642 111.51 132.587 111.252 132.637C110.998 132.674 110.794 132.913 110.638 133.353L106.667 144.571C106.512 145.011 106.518 145.332 106.688 145.533C106.861 145.722 107.168 145.894 107.608 146.05L107.54 146.301L102.845 144.64L102.932 144.395C103.385 144.555 103.731 144.614 103.973 144.572C104.231 144.522 104.438 144.277 104.593 143.837Z" fill="white"/>
<path d="M113.915 137.183L115.488 133.683L127.775 136.814L127.481 140.64L127.23 140.575C127.278 139.9 127.235 139.311 127.102 138.809C126.968 138.307 126.76 137.883 126.477 137.535C126.197 137.175 125.851 136.888 125.438 136.672C125.028 136.444 124.558 136.262 124.029 136.128L122.633 135.772L119.429 148.35C119.313 148.802 119.349 149.121 119.536 149.306C119.726 149.479 120.054 149.624 120.519 149.742L120.455 149.994L115.629 148.765L115.693 148.513C116.158 148.632 116.509 148.659 116.745 148.595C116.998 148.522 117.182 148.259 117.297 147.807L120.501 135.229L119.086 134.868C118.57 134.737 118.077 134.673 117.608 134.678C117.142 134.669 116.7 134.756 116.282 134.938C115.868 135.108 115.482 135.381 115.124 135.758C114.767 136.135 114.448 136.631 114.167 137.248L113.915 137.183Z" fill="white"/>
<path d="M128.749 151.558C129.185 151.617 129.522 151.609 129.761 151.534C130 151.459 130.164 151.239 130.254 150.874L131.861 138.882C131.924 138.419 131.851 138.113 131.642 137.964C131.449 137.803 131.114 137.69 130.639 137.626L130.674 137.368L140.92 138.758L141.545 142.032L141.288 141.997C141.18 141.404 141.044 140.915 140.881 140.529C140.72 140.131 140.509 139.806 140.247 139.555C140 139.293 139.677 139.094 139.278 138.959C138.894 138.813 138.425 138.702 137.87 138.627C137.156 138.53 136.56 138.463 136.081 138.425C135.617 138.375 135.234 138.37 134.932 138.41C134.646 138.439 134.433 138.517 134.295 138.647C134.171 138.764 134.093 138.942 134.061 139.18L133.327 144.59L135.606 144.9C136.148 144.973 136.579 144.964 136.901 144.874C137.223 144.783 137.474 144.622 137.653 144.39C137.832 144.159 137.967 143.861 138.057 143.496C138.149 143.119 138.228 142.679 138.297 142.177L138.554 142.212L137.664 148.771L137.407 148.737C137.475 148.234 137.522 147.783 137.55 147.383C137.579 146.97 137.54 146.615 137.432 146.318C137.339 146.009 137.144 145.761 136.847 145.573C136.564 145.373 136.139 145.234 135.571 145.157L133.292 144.848L132.461 150.972C132.431 151.197 132.445 151.387 132.505 151.543C132.579 151.688 132.71 151.813 132.898 151.919C133.098 152.027 133.369 152.118 133.709 152.191C134.049 152.264 134.47 152.334 134.972 152.402C135.817 152.517 136.563 152.477 137.208 152.282C137.855 152.074 138.43 151.755 138.932 151.325C139.435 150.895 139.883 150.371 140.276 149.751C140.67 149.132 141.03 148.461 141.357 147.738L141.614 147.773L139.435 153.27L128.714 151.816L128.749 151.558Z" fill="white"/>
</g>
<defs>
<clipPath id="clip0_786_6198">
<rect width="160" height="160" fill="white"/>
</clipPath>
</defs>
</svg>
